<?xml version="1.0" encoding="UTF-8" standalone="no"?>
<svg
   xmlns:dc="http://purl.org/dc/elements/1.1/"
   xmlns:cc="http://creativecommons.org/ns#"
   xmlns:rdf="http://www.w3.org/1999/02/22-rdf-syntax-ns#"
   xmlns:svg="http://www.w3.org/2000/svg"
   xmlns="http://www.w3.org/2000/svg"
   xmlns:sodipodi="http://sodipodi.sourceforge.net/DTD/sodipodi-0.dtd"
   xmlns:inkscape="http://www.inkscape.org/namespaces/inkscape"
   sodipodi:docname="wire5.svg"
   inkscape:version="1.0.2-2 (e86c870879, 2021-01-15)"
   id="svg243"
   version="1.1"
   viewBox="0 0 79.859688 20.828783"
   height="20.828783mm"
   width="79.859688mm">
  <defs
     id="defs237" />
  <sodipodi:namedview
     inkscape:window-maximized="1"
     inkscape:window-y="-9"
     inkscape:window-x="-9"
     inkscape:window-height="1001"
     inkscape:window-width="1920"
     showgrid="false"
     inkscape:document-rotation="0"
     inkscape:current-layer="layer1"
     inkscape:document-units="mm"
     inkscape:cy="12.843788"
     inkscape:cx="38.520823"
     inkscape:zoom="63.356768"
     inkscape:pageshadow="2"
     inkscape:pageopacity="0.0"
     borderopacity="1.0"
     bordercolor="#666666"
     pagecolor="#ffffff"
     id="base" />
  <metadata
     id="metadata240">
    <rdf:RDF>
      <cc:Work
         rdf:about="">
        <dc:format>image/svg+xml</dc:format>
        <dc:type
           rdf:resource="http://purl.org/dc/dcmitype/StillImage" />
        <dc:title />
      </cc:Work>
    </rdf:RDF>
  </metadata>
  <g
     transform="translate(18.007224,-128.68085)"
     id="layer1"
     inkscape:groupmode="layer"
     inkscape:label="Layer 1">
    <path
       sodipodi:nodetypes="ccc"
       id="path73-7"
       d="m -17.575223,128.72117 -0.26727,0.83521 c 28.684758,10.46511 80.658789,19.96284 78.465959,19.81908"
       style="fill:none;stroke:#ffff00;stroke-width:0.264583px;stroke-linecap:butt;stroke-linejoin:miter;stroke-opacity:0.99000001" />
    <path
       style="fill:none;stroke:#ffff00;stroke-width:0.265;stroke-linecap:butt;stroke-linejoin:miter;stroke-miterlimit:4;stroke-dasharray:none;stroke-opacity:0.99000001"
       d="m 61.679664,149.11615 v 0 c 2.042872,0.55 -60.523077,-12.3223 -78.808026,-19.79651"
       id="path225"
       sodipodi:nodetypes="ccc" />
    <path
       style="fill:#ffff00;stroke:#f9fc08;stroke-width:0.126468;stroke-miterlimit:4;stroke-dasharray:none;stroke-opacity:0.990741"
       d="m 295.38077,77.09591 c -1.8321,-0.425884 -4.97871,-1.082145 -28.3474,-5.912166 C 174.96521,52.154391 104.21255,35.069789 48.58788,18.435843 43.641008,16.956535 36.606616,14.787279 36.539707,14.720443 36.295872,14.476878 37.30725,14.741726 41.909485,16.126619 88.62522,30.1842 168.17362,49.617416 257.942,68.902121 c 13.41934,2.882844 36.05859,7.613378 39.90102,8.33743 0.46659,0.08792 0.48102,0.102412 0.1894,0.190168 -0.48888,0.147117 -0.69367,0.121337 -2.65165,-0.333809 z"
       id="path3524"
       transform="matrix(0.26458333,0,0,0.26458333,-18.007224,128.68085)" />
    <path
       style="fill:none;stroke:#000000;stroke-width:0.264583px;stroke-linecap:butt;stroke-linejoin:miter;stroke-opacity:1"
       d="m -17.575223,128.72117 0.446861,0.59847"
       id="path3528" />
    <path
       style="fill:#ffff00;stroke:#f9fc08;stroke-width:0.0447132;stroke-miterlimit:4;stroke-dasharray:none;stroke-opacity:0.990741"
       d="M 36.035715,14.655569 C 35.86384,14.597536 34.628349,14.205623 33.290179,13.78465 25.272159,11.262274 16.416574,8.3299508 9.0491077,5.7577767 6.0570229,4.7131621 1.3683276,3.033476 1.3168857,2.9877724 1.2853015,2.9597114 1.7548119,1.4280683 1.8152047,1.3621495 c 0.017861,-0.019496 0.2668679,0.2768212 0.5533478,0.6584821 0.2864799,0.381661 0.5380205,0.693929 0.5589791,0.693929 0.020959,0 0.089185,-0.040179 0.151615,-0.089286 0.1598258,-0.125719 0.1772918,-0.1125105 0.099,0.074868 -0.037723,0.090285 -0.05306,0.1792535 -0.034081,0.1977085 0.046215,0.044939 2.3747498,0.9702505 4.3635781,1.7339948 7.2582783,2.7873038 16.3478643,5.8822731 26.9432503,9.1740751 1.313616,0.408118 2.408482,0.751369 2.433035,0.762781 0.02455,0.01141 -0.04769,0.01 -0.16053,-0.0032 -0.210093,-0.02455 -0.351291,0.0522 -0.287107,0.156053 0.04185,0.06772 -0.04893,0.05277 -0.400577,-0.06597 z"
       id="path3530"
       transform="matrix(0.26458333,0,0,0.26458333,-18.007224,128.68085)" />
  </g>
</svg>
