<?xml version="1.0" encoding="UTF-8" standalone="no"?>
<svg
   xmlns:osb="http://www.openswatchbook.org/uri/2009/osb"
   xmlns:dc="http://purl.org/dc/elements/1.1/"
   xmlns:cc="http://creativecommons.org/ns#"
   xmlns:rdf="http://www.w3.org/1999/02/22-rdf-syntax-ns#"
   xmlns:svg="http://www.w3.org/2000/svg"
   xmlns="http://www.w3.org/2000/svg"
   xmlns:sodipodi="http://sodipodi.sourceforge.net/DTD/sodipodi-0.dtd"
   xmlns:inkscape="http://www.inkscape.org/namespaces/inkscape"
   sodipodi:docname="wire4.svg"
   inkscape:version="1.0.2-2 (e86c870879, 2021-01-15)"
   id="svg143"
   version="1.1"
   viewBox="0 0 47.910236 22.048559"
   height="22.048559mm"
   width="47.910236mm">
  <defs
     id="defs137">
    <linearGradient
       id="linearGradient3155"
       osb:paint="solid">
      <stop
         style="stop-color:#000000;stop-opacity:1;"
         offset="0"
         id="stop3153" />
    </linearGradient>
  </defs>
  <sodipodi:namedview
     inkscape:window-maximized="1"
     inkscape:window-y="-9"
     inkscape:window-x="-9"
     inkscape:window-height="1001"
     inkscape:window-width="1920"
     showgrid="false"
     inkscape:document-rotation="0"
     inkscape:current-layer="layer1"
     inkscape:document-units="mm"
     inkscape:cy="62.879152"
     inkscape:cx="113.89183"
     inkscape:zoom="5.6568543"
     inkscape:pageshadow="2"
     inkscape:pageopacity="0.0"
     borderopacity="1.0"
     bordercolor="#666666"
     pagecolor="#ffffff"
     id="base" />
  <metadata
     id="metadata140">
    <rdf:RDF>
      <cc:Work
         rdf:about="">
        <dc:format>image/svg+xml</dc:format>
        <dc:type
           rdf:resource="http://purl.org/dc/dcmitype/StillImage" />
        <dc:title />
      </cc:Work>
    </rdf:RDF>
  </metadata>
  <g
     transform="translate(-4.01512,-47.184054)"
     id="layer1"
     inkscape:groupmode="layer"
     inkscape:label="Layer 1">
    <path
       style="fill:none;stroke:#ffff00;stroke-width:0.264583px;stroke-linecap:butt;stroke-linejoin:miter;stroke-opacity:0.99000001"
       d="M 51.463071,47.302611 C 35.813232,55.050541 21.088922,63.627571 4.054744,68.975161"
       id="path123"
       sodipodi:nodetypes="cc" />
    <path
       style="fill:none;stroke:#ffff00;stroke-width:0.264583px;stroke-linecap:butt;stroke-linejoin:miter;stroke-opacity:0.99000001"
       d="m 5.102285,69.105441 c 17.065337,-4.89056 43.572607,-20.46334 46.786006,-21.40123"
       id="path125"
       sodipodi:nodetypes="cc" />
    <path
       style="fill:none;stroke:#000000;stroke-width:0.264583px;stroke-linecap:butt;stroke-linejoin:miter;stroke-opacity:1"
       d="m 51.888291,47.704211 v 0"
       id="path3241"
       sodipodi:nodetypes="cc" />
    <path
       style="fill:#ffff00;fill-opacity:0.82;stroke-width:0.446429"
       d=""
       id="path3243"
       transform="matrix(0.26458333,0,0,0.26458333,4.01512,47.184054)" />
    <path
       style="fill:#ffff00;fill-opacity:0.82;stroke-width:0.446429"
       d="M 3.4611189,82.174997 C 3.1960878,82.125964 5.0554416,81.425489 8.5504046,80.257706 26.390644,74.296691 43.785185,67.458164 63.521576,58.646222 82.373094,50.229361 100.72346,41.266589 132.00372,25.197855 c 2.83812,-1.457949 5.41688,-2.782262 7.77633,-3.993373 15.71419,-8.066137 21.70051,-11.110952 29.79256,-15.1708788 8.65728,-4.343513 9.65001,-4.8002261 9.897,-4.5532315 0.247,0.2469945 0.23113,0.2910503 -0.15818,0.4392153 -3.56929,1.3584191 -8.46511,3.8189248 -31.86128,16.012621 C 112.01088,36.402568 93.125812,45.832823 72.450148,55.383454 46.864571,67.202102 24.202924,76.213536 7.4501475,81.230793 3.8735821,82.301932 3.99364,82.273514 3.4611189,82.174997 Z"
       id="path3249"
       transform="matrix(0.26458333,0,0,0.26458333,4.01512,47.184054)"
       sodipodi:nodetypes="ssssssssssss" />
    <path
       style="fill:#ffff00;fill-opacity:0.82;stroke-width:0.446429"
       d="M 4.5037186,81.786612 C 4.65104,81.703739 7.18229,80.815489 10.128719,79.812727 27.811778,73.794616 43.350795,67.68363 61.914433,59.447102 81.954808,50.555357 99.406629,42.028689 136.28943,23.108723 c 1.17363,-0.602043 2.33827,-1.199131 3.49149,-1.790031 0.25491,-0.130612 0.50925,-0.260922 0.76302,-0.390916 18.08241,-9.262944 33.19948,-16.9237309 35.87562,-18.1757249 1.39747,-0.6537845 2.67564,-1.162382 2.84038,-1.1302246 0.16474,0.032157 -0.61703,0.4522284 -1.73727,0.9334912 C 174.9011,3.6815594 165.09766,8.6410441 151.468,15.736173 125.30013,29.358268 110.49891,36.914769 96.735861,43.678709 60.816147,61.331682 31.544736,73.657716 8.802717,80.706886 c -3.7296476,1.15605 -5.0033501,1.47595 -4.2989984,1.079726 z"
       id="path847"
       transform="matrix(0.26458333,0,0,0.26458333,4.01512,47.184054)"
       sodipodi:nodetypes="sssssssssssss" />
    <path
       style="fill:#ffff00;fill-opacity:0.82;stroke-width:0.446429"
       d=""
       id="path849"
       transform="matrix(0.26458333,0,0,0.26458333,4.01512,47.184054)" />
    <path
       style="fill:#ffff00;fill-opacity:0.82;stroke-width:0.446429"
       d="m 12.718004,79.018157 c 17.58032,-6.119925 32.31814,-11.96642 49.943188,-19.81247 19.070614,-8.489566 35.683627,-16.582416 68.683158,-33.458259 5.08824,-2.602108 9.29104,-4.691417 9.33955,-4.642909 0.0866,0.08658 -6.55157,3.542656 -21.10338,10.987212 C 79.228444,52.735439 47.716731,66.964903 21.825147,76.234259 16.749554,78.051355 7.6062723,81.059175 7.1955848,81.046873 7.0409512,81.042243 9.52604,80.129319 12.718004,79.018157 Z"
       id="path851"
       transform="matrix(0.26458333,0,0,0.26458333,4.01512,47.184054)" />
    <path
       style="fill:#ffff00;fill-opacity:0.82;stroke-width:0.446429"
       d=""
       id="path853"
       transform="matrix(0.26458333,0,0,0.26458333,4.01512,47.184054)" />
    <path
       style="fill:#ffff00;fill-opacity:0.82;stroke-width:0.446429"
       d=""
       id="path855"
       transform="matrix(0.26458333,0,0,0.26458333,4.01512,47.184054)" />
    <path
       style="fill:#ffff00;fill-opacity:0.82;stroke-width:0.446429"
       d=""
       id="path857"
       transform="matrix(0.26458333,0,0,0.26458333,4.01512,47.184054)" />
    <path
       style="fill:#ffff00;fill-opacity:0.82;stroke-width:0.446429"
       d=""
       id="path859"
       transform="matrix(0.26458333,0,0,0.26458333,4.01512,47.184054)" />
    <path
       style="fill:#ffff00;fill-opacity:0.82;stroke-width:0.446429"
       d=""
       id="path861"
       transform="matrix(0.26458333,0,0,0.26458333,4.01512,47.184054)" />
    <path
       style="fill:#ffff00;fill-opacity:0.82;stroke-width:0.157836"
       d=""
       id="path865"
       transform="matrix(0.26458333,0,0,0.26458333,4.01512,47.184054)" />
    <path
       style="fill:#ffff00;fill-opacity:0.82;stroke-width:0.157836"
       d=""
       id="path867"
       transform="matrix(0.26458333,0,0,0.26458333,4.01512,47.184054)" />
    <path
       style="fill:#ffff00;fill-opacity:0.82;stroke-width:0.157836"
       d="m 140.66527,21.179802 c 0.0879,-0.107871 0.0803,-0.112136 -0.12626,-0.07129 -0.33383,0.06599 0.15224,-0.187862 8.96634,-4.682808 12.34428,-6.295242 15.72497,-8.007133 21.84455,-11.0615137 5.18509,-2.5879657 7.16,-3.5196057 7.33632,-3.4608308 0.0368,0.012266 -0.27062,0.1749064 -0.68317,0.3614227 -1.71165,0.7738625 -3.33587,1.5623155 -7.23951,3.5143215 -6.02941,3.0149864 -8.23908,4.1492015 -21.64995,11.1128053 -4.57333,2.374704 -8.36614,4.336766 -8.42846,4.360137 -0.10245,0.03842 -0.10435,0.03149 -0.0199,-0.07224 z"
       id="path869"
       transform="matrix(0.26458333,0,0,0.26458333,4.01512,47.184054)" />
    <path
       style="fill:#ffff00;fill-opacity:0.82;stroke-width:0.157836"
       d=""
       id="path871"
       transform="matrix(0.26458333,0,0,0.26458333,4.01512,47.184054)" />
    <path
       style="fill:#ffff00;fill-opacity:0.82;stroke-width:0.157836"
       d=""
       id="path873"
       transform="matrix(0.26458333,0,0,0.26458333,4.01512,47.184054)" />
    <path
       style="fill:#ffff00;fill-opacity:0.82;stroke-width:0.157836"
       d=""
       id="path875"
       transform="matrix(0.26458333,0,0,0.26458333,4.01512,47.184054)" />
    <path
       style="fill:#ffff00;fill-opacity:0.82;stroke-width:0.157836"
       d=""
       id="path877"
       transform="matrix(0.26458333,0,0,0.26458333,4.01512,47.184054)" />
    <path
       style="fill:#ffff00;fill-opacity:0.82;stroke-width:0.0789182"
       d=""
       id="path879"
       transform="matrix(0.26458333,0,0,0.26458333,4.01512,47.184054)" />
    <path
       style="fill:#ffff00;fill-opacity:0.82;stroke-width:0.0789182"
       d=""
       id="path881"
       transform="matrix(0.26458333,0,0,0.26458333,4.01512,47.184054)" />
    <path
       style="fill:#ffff00;fill-opacity:0.82;stroke-width:0.0789182"
       d=""
       id="path883"
       transform="matrix(0.26458333,0,0,0.26458333,4.01512,47.184054)" />
    <path
       style="fill:#003eff;fill-opacity:0.99215686;stroke-width:0.0789182"
       d=""
       id="path885"
       transform="matrix(0.26458333,0,0,0.26458333,4.01512,47.184054)" />
    <path
       style="fill:#ffff00;fill-opacity:0.992157;stroke-width:0.0789182"
       d=""
       id="path901"
       transform="matrix(0.26458333,0,0,0.26458333,4.01512,47.184054)" />
    <path
       style="fill:#ffff00;fill-opacity:0.992157;stroke-width:0.0789182"
       d="m 140.66371,21.192556 c 0.0836,-0.09234 0.0653,-0.13254 -0.0504,-0.110928 -0.21242,0.03969 0.002,-0.08446 1.38107,-0.801201 1.66379,-0.864456 12.7753,-6.532518 19.44544,-9.91926 3.15454,-1.6017105 12.49246,-6.2771861 13.93695,-6.9781997 1.95844,-0.950442 3.07293,-1.4539756 3.21006,-1.4503319 0.0791,0.0021 -0.17738,0.1310494 -1.22133,0.613982 -1.48706,0.6879259 -2.756,1.3069981 -6.25032,3.0493207 -5.7174,2.8507935 -7.78037,3.9078209 -20.09256,10.2950769 -9.4298,4.89194 -10.33581,5.359269 -10.39007,5.359269 -0.0116,0 0.002,-0.02598 0.0311,-0.05773 z"
       id="path903"
       transform="matrix(0.26458333,0,0,0.26458333,4.01512,47.184054)" />
    <path
       style="fill:#ffff00;fill-opacity:0.992157;stroke-width:0.0789182"
       d="m 140.66371,21.192556 c 0.0836,-0.09234 0.0653,-0.13254 -0.0504,-0.110928 -0.21242,0.03969 0.002,-0.08446 1.38107,-0.801201 1.66379,-0.864456 12.7753,-6.532518 19.44544,-9.91926 3.15454,-1.6017105 12.49246,-6.2771861 13.93695,-6.9781997 1.95844,-0.950442 3.07293,-1.4539756 3.21006,-1.4503319 0.0791,0.0021 -0.17738,0.1310494 -1.22133,0.613982 -1.48706,0.6879259 -2.756,1.3069981 -6.25032,3.0493207 -5.7174,2.8507935 -7.78037,3.9078209 -20.09256,10.2950769 -9.4298,4.89194 -10.33581,5.359269 -10.39007,5.359269 -0.0116,0 0.002,-0.02598 0.0311,-0.05773 z"
       id="path905"
       transform="matrix(0.26458333,0,0,0.26458333,4.01512,47.184054)" />
    <path
       style="fill:#ffff00;fill-opacity:0.992157;stroke-width:0.0789182"
       d=""
       id="path907"
       transform="matrix(0.26458333,0,0,0.26458333,4.01512,47.184054)" />
    <path
       style="fill:#ffff00;fill-opacity:0.992157;stroke-width:0.0789182"
       d="m 119.82339,32.032312 c 0.007,-0.03288 0.76885,-0.439975 2.07848,-1.110423 8.22934,-4.212923 14.54751,-7.478963 16.87045,-8.720817 0.32864,-0.175693 0.60293,-0.319442 0.60953,-0.319442 0.007,0 0.004,0.01313 -0.006,0.02918 -0.01,0.01605 0.003,0.03381 0.0276,0.03946 0.0251,0.0057 -1.23545,0.673416 -2.80121,1.483914 -5.28979,2.738195 -12.83562,6.622619 -15.41062,7.933044 -0.53822,0.273903 -1.06868,0.547278 -1.17881,0.607501 -0.15395,0.08419 -0.19772,0.0975 -0.1894,0.05759 z"
       id="path909"
       transform="matrix(0.26458333,0,0,0.26458333,4.01512,47.184054)" />
    <path
       style="fill:#ffff00;fill-opacity:0.992157;stroke-width:0.0789182"
       d=""
       id="path911"
       transform="matrix(0.26458333,0,0,0.26458333,4.01512,47.184054)" />
    <path
       style="fill:#ffff00;fill-opacity:0.992157;stroke-width:0.0789182"
       d=""
       id="path913"
       transform="matrix(0.26458333,0,0,0.26458333,4.01512,47.184054)" />
    <path
       style="fill:#ffff00;fill-opacity:0.992157;stroke-width:0.0789182"
       d="m 119.82407,31.57164 c 0.007,-0.02136 0.70837,-0.393006 1.55834,-0.825875 3.5821,-1.824288 8.66104,-4.41828 12.46366,-6.365636 3.15718,-1.616816 4.07702,-2.075084 4.10768,-2.046448 0.0307,0.02865 -0.54338,0.330214 -2.56873,1.349394 -1.43453,0.721872 -4.30576,2.179743 -6.38052,3.239714 -2.07476,1.059971 -4.96553,2.534415 -6.42394,3.276542 -1.45841,0.742127 -2.67815,1.363232 -2.71054,1.380235 -0.0431,0.02265 -0.0554,0.02053 -0.0459,-0.0079 z"
       id="path915"
       transform="matrix(0.26458333,0,0,0.26458333,4.01512,47.184054)" />
    <path
       style="fill:#ffff00;fill-opacity:0.992157;stroke-width:0.157836"
       d="m 69.553332,56.291421 c 0.01771,-0.147316 0.140961,-0.219734 1.185384,-0.696488 7.653571,-3.493673 15.092335,-7.024771 24.309165,-11.539289 3.844056,-1.882866 17.805369,-8.86333 22.791569,-11.395469 10.63407,-5.400295 15.65736,-7.976713 15.65736,-8.030567 0,-0.03287 0.0284,-0.0422 0.0631,-0.02074 0.0347,0.02146 0.0631,0.0073 0.0631,-0.03157 0,-0.03882 0.0284,-0.05303 0.0631,-0.03157 0.0347,0.02146 0.0631,0.0042 0.0631,-0.03836 0,-0.04256 0.0174,-0.05998 0.0387,-0.03871 0.0213,0.02127 1.37388,-0.629057 3.00582,-1.445167 1.63193,-0.81611 2.98067,-1.470315 2.9972,-1.453789 0.0165,0.01653 -0.0221,0.05725 -0.0859,0.09051 -0.0637,0.03325 -0.89717,0.472033 -1.85208,0.975064 -7.31615,3.854031 -23.63418,12.188796 -33.2719,16.994299 C 91.794866,46.00502 79.448084,51.939848 70.342514,56.087364 l -0.808946,0.368468 z"
       id="path917"
       transform="matrix(0.26458333,0,0,0.26458333,4.01512,47.184054)" />
    <path
       style="fill:#ffff00;fill-opacity:0.992157;stroke-width:0.157836"
       d="m 69.60482,56.270549 c 0.08726,-0.163048 0.19108,-0.214177 4.008887,-1.974276 10.108681,-4.660342 18.216491,-8.582591 32.545853,-15.744441 10.45531,-5.225591 25.83002,-13.034942 27.65293,-14.045884 0.38536,-0.213713 4.38219,-2.133483 4.40152,-2.114153 0.0135,0.0135 -0.43863,0.265894 -1.00472,0.560888 -20.66041,10.766239 -41.406901,21.141271 -57.439966,28.724935 -3.865717,1.82849 -10.110127,4.719491 -10.193852,4.719491 -0.02111,0 -0.0079,-0.05695 0.02935,-0.12656 z"
       id="path919"
       transform="matrix(0.26458333,0,0,0.26458333,4.01512,47.184054)" />
    <path
       style="fill:#ffff00;fill-opacity:0.992157;stroke-width:0.157836"
       d="m 69.601705,56.276369 c 0.09016,-0.168466 0.314346,-0.279906 3.791031,-1.884479 8.492651,-3.919562 15.762994,-7.404065 25.095977,-12.027908 10.413567,-5.159197 25.949967,-13.001598 33.335037,-16.826719 2.10029,-1.087854 2.58824,-1.332692 4.82411,-2.420619 0.84762,-0.412431 1.55235,-0.738655 1.56606,-0.724942 0.0404,0.0404 -6.63373,3.508693 -14.43983,7.503826 -20.14888,10.312131 -37.168074,18.673385 -50.995654,25.053334 -1.640015,0.756692 -3.041672,1.394791 -3.114794,1.417999 -0.119021,0.03778 -0.12551,0.02829 -0.06194,-0.09049 z"
       id="path921"
       transform="matrix(0.26458333,0,0,0.26458333,4.01512,47.184054)" />
    <path
       style="fill:#ffff00;fill-opacity:0.992157;stroke-width:0.157836"
       d=""
       id="path923"
       transform="matrix(0.26458333,0,0,0.26458333,4.01512,47.184054)" />
    <path
       style="fill:#ffff00;fill-opacity:0.992157;stroke-width:0.157836"
       d=""
       id="path925"
       transform="matrix(0.26458333,0,0,0.26458333,4.01512,47.184054)" />
    <path
       style="fill:#ffff00;fill-opacity:0.992157;stroke-width:0.0558036"
       d="m 102.1299,40.469384 c 0,-0.01537 1.38365,-0.719403 3.07478,-1.564526 4.1637,-2.080762 9.47161,-4.756364 13.56384,-6.83724 0.58819,-0.299087 1.07216,-0.54107 1.07549,-0.537738 0.0469,0.04693 -0.53018,0.34421 -7.33464,3.778285 -3.06826,1.548488 -10.33811,5.188774 -10.36273,5.189003 -0.009,8.5e-5 -0.0167,-0.01242 -0.0167,-0.02778 z"
       id="path927"
       transform="matrix(0.26458333,0,0,0.26458333,4.01512,47.184054)" />
    <path
       style="fill:#ffff00;fill-opacity:0.992157;stroke-width:0.0558036"
       d=""
       id="path929"
       transform="matrix(0.26458333,0,0,0.26458333,4.01512,47.184054)" />
    <path
       style="fill:#ffff00;fill-opacity:0.992157;stroke-width:0.0558036"
       d="m 102.13027,40.949333 c 2.8e-4,-0.02951 1.03916,-0.559201 4.24665,-2.165243 4.20312,-2.104567 7.61799,-3.829645 11.44696,-5.782623 1.0876,-0.554734 1.98296,-1.008608 1.9897,-1.008608 0.007,0 0.0109,0.01758 0.009,0.03906 -0.002,0.02658 -0.11371,0.09673 -0.34909,0.21945 -0.44673,0.232918 -4.03913,2.06077 -6.64062,3.378823 -2.05426,1.040799 -10.66859,5.3582 -10.69099,5.3582 -0.007,0 -0.012,-0.01758 -0.0118,-0.03906 z"
       id="path931"
       transform="matrix(0.26458333,0,0,0.26458333,4.01512,47.184054)" />
    <path
       style="fill:#ffff00;fill-opacity:0.992157;stroke-width:0.0558036"
       d="m 119.96472,31.96143 c 0,-0.02626 0.98173,-0.536752 4.5759,-2.379452 5.3795,-2.758027 10.17284,-5.233197 12.63393,-6.523878 0.63821,-0.334702 2.13117,-1.1239 2.1729,-1.148623 0.0104,-0.0062 0.0154,0.0059 0.0112,0.02682 -0.008,0.0413 -0.36425,0.236932 -1.70415,0.936868 -3.06204,1.599537 -17.63151,9.097373 -17.67762,9.097373 -0.007,0 -0.0121,-0.0041 -0.0121,-0.0091 z"
       id="path933"
       transform="matrix(0.26458333,0,0,0.26458333,4.01512,47.184054)" />
    <path
       style="fill:#ffff00;fill-opacity:0.992157;stroke-width:0.0558036"
       d="m 119.96472,31.961022 c 0,-0.02765 0.92934,-0.51077 4.87724,-2.535466 6.98892,-3.584301 11.76237,-6.056484 14.15178,-7.329243 0.19643,-0.104631 0.36079,-0.179877 0.36524,-0.167214 0.0122,0.0346 0.004,0.0394 -0.48801,0.303768 -1.58903,0.853045 -18.82683,9.737671 -18.89285,9.737671 -0.007,0 -0.0134,-0.0043 -0.0134,-0.0095 z"
       id="path935"
       transform="matrix(0.26458333,0,0,0.26458333,4.01512,47.184054)" />
    <path
       style="fill:#ffff00;fill-opacity:0.992157;stroke-width:0.0558036"
       d=""
       id="path937"
       transform="matrix(0.26458333,0,0,0.26458333,4.01512,47.184054)" />
    <path
       style="fill:#ffff00;fill-opacity:0.992157;stroke-width:0.0558036"
       d=""
       id="path939"
       transform="matrix(0.26458333,0,0,0.26458333,4.01512,47.184054)" />
    <path
       style="fill:#ffff00;fill-opacity:0.992157;stroke-width:0.0558036"
       d="m 102.1299,40.692594 v -0.139551 l 2.76228,-1.380373 c 3.31536,-1.656763 10.9595,-5.498985 13.07478,-6.571861 9.54828,-4.842919 15.57322,-7.932796 15.53759,-7.968427 -0.01,-0.0098 -1.49358,0.743259 -7.34563,3.727762 -1.80469,0.920378 -3.83209,1.954326 -4.50533,2.297661 -0.67324,0.343336 -1.2288,0.619529 -1.23456,0.613763 -0.0132,-0.01317 0.25185,-0.14967 4.27784,-2.203223 1.81082,-0.923656 5.05746,-2.581946 7.21474,-3.685088 4.21187,-2.153765 5.835,-2.972774 5.86904,-2.961427 0.032,0.01068 -0.42637,0.249875 -2.22908,1.163135 -0.89878,0.455323 -1.63067,0.831329 -1.62643,0.835569 0.0129,0.01292 0.95633,-0.444497 2.98155,-1.445593 2.09696,-1.036558 2.83389,-1.392239 2.85039,-1.375741 0.0196,0.01959 -0.0442,0.05366 -2.93968,1.570821 -5.9312,3.107774 -16.45414,8.499462 -25.72544,13.181061 -2.33074,1.176919 -8.93072,4.481063 -8.95087,4.481063 -0.006,0 -0.0112,-0.0628 -0.0112,-0.139551 z m 31.49043,-16.106279 c 0.005,-0.01631 -0.005,-0.0213 -0.0265,-0.01296 -0.0194,0.0075 -0.0353,0.02337 -0.0353,0.03536 0,0.02934 0.0507,0.01097 0.0619,-0.0224 z m 0.12879,-0.0503 c 0.0243,-0.03934 -0.001,-0.04486 -0.0472,-0.01016 -0.0378,0.02857 -0.0384,0.03263 -0.005,0.03325 0.0208,3.91e-4 0.0444,-0.01 0.0524,-0.0231 z"
       id="path941"
       transform="matrix(0.26458333,0,0,0.26458333,4.01512,47.184054)" />
    <path
       style="fill:#ffff00;fill-opacity:0.992157;stroke-width:0.0558036"
       d="m 102.1299,40.692594 v -0.139551 l 2.76228,-1.380373 c 3.31536,-1.656763 10.9595,-5.498985 13.07478,-6.571861 9.54828,-4.842919 15.57322,-7.932796 15.53759,-7.968427 -0.01,-0.0098 -1.49358,0.743259 -7.34563,3.727762 -1.80469,0.920378 -3.83209,1.954326 -4.50533,2.297661 -0.67324,0.343336 -1.2288,0.619529 -1.23456,0.613763 -0.0132,-0.01317 0.25185,-0.14967 4.27784,-2.203223 1.81082,-0.923656 5.05746,-2.581946 7.21474,-3.685088 4.21187,-2.153765 5.835,-2.972774 5.86904,-2.961427 0.032,0.01068 -0.42637,0.249875 -2.22908,1.163135 -0.89878,0.455323 -1.63067,0.831329 -1.62643,0.835569 0.0129,0.01292 0.95633,-0.444497 2.98155,-1.445593 2.09696,-1.036558 2.83389,-1.392239 2.85039,-1.375741 0.0196,0.01959 -0.0442,0.05366 -2.93968,1.570821 -5.9312,3.107774 -16.45414,8.499462 -25.72544,13.181061 -2.33074,1.176919 -8.93072,4.481063 -8.95087,4.481063 -0.006,0 -0.0112,-0.0628 -0.0112,-0.139551 z m 31.49043,-16.106279 c 0.005,-0.01631 -0.005,-0.0213 -0.0265,-0.01296 -0.0194,0.0075 -0.0353,0.02337 -0.0353,0.03536 0,0.02934 0.0507,0.01097 0.0619,-0.0224 z m 0.12879,-0.0503 c 0.0243,-0.03934 -0.001,-0.04486 -0.0472,-0.01016 -0.0378,0.02857 -0.0384,0.03263 -0.005,0.03325 0.0208,3.91e-4 0.0444,-0.01 0.0524,-0.0231 z"
       id="path943"
       transform="matrix(0.26458333,0,0,0.26458333,4.01512,47.184054)" />
    <path
       style="fill:#ffff00;fill-opacity:0.992157;stroke-width:0.0558036"
       d="m 102.13446,40.69052 0.007,-0.141626 4.93304,-2.472929 c 6.35747,-3.186996 9.7043,-4.873925 13.93973,-7.026147 7.35339,-3.736605 12.36607,-6.309482 12.36607,-6.34718 0,-0.0189 -1.32576,0.653761 -8.56027,4.343322 -1.51004,0.770114 -3.11527,1.58858 -3.56716,1.818812 -0.4519,0.230232 -0.82673,0.413504 -0.83297,0.40727 -0.0146,-0.01462 0.22611,-0.138842 4.07647,-2.10358 1.774,-0.905223 4.78739,-2.444603 6.69643,-3.420845 4.13867,-2.116421 6.55474,-3.336957 6.58538,-3.326746 0.0368,0.01226 -0.35248,0.216553 -2.09877,1.101437 -0.91462,0.463459 -1.67299,0.851948 -1.68527,0.86331 -0.0429,0.03971 0.91107,-0.423837 3.28125,-1.594398 1.61177,-0.796001 2.44637,-1.200146 2.47842,-1.200146 0.0399,0 -0.0338,0.05289 -0.19635,0.141049 -1.03101,0.559064 -6.37956,3.34402 -10.01644,5.215496 -0.84096,0.432743 -1.70982,0.879942 -1.93081,0.993775 -2.48893,1.282111 -8.39959,4.30021 -11.51785,5.881239 -0.49108,0.248985 -1.15402,0.585892 -1.47322,0.748682 -2.53105,1.29084 -12.43234,6.26083 -12.47292,6.26083 -0.01,0 -0.015,-0.06373 -0.0114,-0.141625 z m 31.47982,-16.086053 c 0.008,-0.01228 -0.002,-0.02232 -0.021,-0.02232 -0.0191,0 -0.0348,0.01004 -0.0348,0.02232 0,0.01228 0.009,0.02232 0.021,0.02232 0.0115,0 0.0272,-0.01005 0.0348,-0.02232 z m 0.13393,-0.06696 c 0.008,-0.01228 -0.001,-0.02232 -0.0197,-0.02232 -0.0184,0 -0.0397,0.01005 -0.0473,0.02232 -0.008,0.01228 0.001,0.02232 0.0197,0.02232 0.0184,0 0.0397,-0.01004 0.0473,-0.02232 z"
       id="path945"
       transform="matrix(0.26458333,0,0,0.26458333,4.01512,47.184054)" />
    <path
       style="fill:#ffff00;fill-opacity:0.992157;stroke-width:0.0558036"
       d="m 70.537941,56.09068 c 0,-0.03425 0.04094,-0.06367 0.172992,-0.124315 8.868102,-4.072777 19.81882,-9.311686 29.590597,-14.156377 1.01786,-0.504636 1.85313,-0.91752 1.85616,-0.91752 0.003,0 -0.006,0.02643 -0.0203,0.05874 -0.0274,0.0623 -0.17302,0.135946 -4.021334,2.033358 -8.852421,4.364684 -17.452557,8.47646 -25.714285,12.294154 -2.079372,0.960865 -1.86384,0.866971 -1.86384,0.811963 z"
       id="path947"
       transform="matrix(0.26458333,0,0,0.26458333,4.01512,47.184054)" />
    <path
       style="fill:#ffff00;fill-opacity:0.992157;stroke-width:0.0558036"
       d="M 70.537941,55.839667 V 55.69758 l 0.340402,-0.15723 c 0.187221,-0.08648 0.89788,-0.41323 1.579241,-0.726121 C 80.0722,51.317499 88.613147,47.240407 96.92187,43.136 c 1.949087,-0.962825 15.26172,-7.614429 15.30134,-7.645253 0.0123,-0.0096 0.77567,-0.394755 1.69643,-0.856008 0.92076,-0.461253 2.36011,-1.185596 3.19856,-1.609653 0.83846,-0.424056 1.5295,-0.771011 1.53567,-0.771011 0.006,0 0.008,0.0611 0.005,0.135768 l -0.007,0.135768 -2.04241,1.03741 c -8.41556,4.274548 -15.19447,7.657854 -22.433036,11.196163 -7.10141,3.471266 -13.473232,6.519627 -19.129464,9.15178 -1.637054,0.761812 -4.481583,2.07079 -4.500012,2.07079 -0.0049,0 -0.0089,-0.06394 -0.0089,-0.142087 z"
       id="path949"
       transform="matrix(0.26458333,0,0,0.26458333,4.01512,47.184054)" />
    <path
       style="fill:#ffff00;fill-opacity:0.992157;stroke-width:0.0558036"
       d=""
       id="path951"
       transform="matrix(0.26458333,0,0,0.26458333,4.01512,47.184054)" />
    <path
       style="fill:#ffff00;fill-opacity:0.992157;stroke-width:0.0558036"
       d="m 70.541376,55.614254 c 0.0053,-0.02589 0.302323,-0.172799 0.934065,-0.46194 5.080231,-2.325156 10.391966,-4.822003 15.77009,-7.412924 4.107717,-1.9789 7.804464,-3.788389 13.366489,-6.542648 1.04142,-0.515702 1.51156,-0.737965 1.50661,-0.712264 -0.007,0.03631 -1.79409,0.930137 -5.833247,2.91752 -8.98545,4.421107 -16.926758,8.203307 -24.642531,11.736478 -0.589286,0.269843 -1.079927,0.495825 -1.090315,0.502183 -0.01039,0.0064 -0.01541,-0.0055 -0.01116,-0.0264 z"
       id="path953"
       transform="matrix(0.26458333,0,0,0.26458333,4.01512,47.184054)" />
    <path
       style="fill:#ffff00;fill-opacity:0.992157;stroke-width:0.0558036"
       d="m 36.52058,70.4454 0.0064,-0.216908 2.466518,-0.986435 c 6.039915,-2.415545 11.299326,-4.612686 17.566964,-7.338674 3.838732,-1.669582 9.3685,-4.131567 12.86723,-5.728798 0.451819,-0.206264 0.591688,-0.257366 0.370014,-0.13519 -0.06717,0.03702 -0.14513,0.08892 -0.173241,0.115329 -0.05626,0.05286 -0.104179,0.198859 -0.08986,0.273794 0.0104,0.05442 0.230808,-0.05113 -2.248701,1.076829 -9.671403,4.399623 -18.99317,8.417719 -27.511161,11.858532 -1.258835,0.508502 -3.145562,1.262378 -3.209535,1.282428 l -0.05105,0.016 z"
       id="path955"
       transform="matrix(0.26458333,0,0,0.26458333,4.01512,47.184054)" />
    <path
       style="fill:#ffff00;fill-opacity:0.992157;stroke-width:0.0558036"
       d=""
       id="path957"
       transform="matrix(0.26458333,0,0,0.26458333,4.01512,47.184054)" />
    <path
       style="fill:#ffff00;fill-opacity:0.992157;stroke-width:0.0558036"
       d="m 36.515829,70.170235 c 0,-0.01088 0.575056,-0.248545 1.277902,-0.528137 9.601251,-3.819374 20.206248,-8.362195 31.445313,-13.470104 1.446567,-0.657433 1.294694,-0.592355 1.294431,-0.554671 -2.24e-4,0.01741 -0.154338,0.100397 -0.362724,0.195185 -10.936183,4.974528 -19.871338,8.836406 -28.978582,12.524878 -1.84923,0.748946 -4.624205,1.852637 -4.658026,1.852637 -0.01007,0 -0.01831,-0.0089 -0.01831,-0.01979 z"
       id="path959"
       transform="matrix(0.26458333,0,0,0.26458333,4.01512,47.184054)" />
    <path
       style="fill:#ffff00;fill-opacity:0.992157;stroke-width:0.0558036"
       d="m 36.516249,70.731318 c 3.31e-4,-0.03082 0.361987,-0.183671 1.71317,-0.724078 9.546208,-3.818013 20.767343,-8.659395 31.465348,-13.575792 0.416384,-0.191354 0.774891,-0.353576 0.796685,-0.360493 0.02906,-0.0092 0.03877,-0.0012 0.03641,0.03005 -0.0034,0.04578 -0.385306,0.224193 -3.677214,1.718107 -8.793355,3.990544 -17.354073,7.694368 -25.023924,10.826688 -2.31006,0.943414 -5.250318,2.124583 -5.288678,2.124583 -0.01222,0 -0.02203,-0.01758 -0.0218,-0.03906 z"
       id="path961"
       transform="matrix(0.26458333,0,0,0.26458333,4.01512,47.184054)" />
    <path
       style="fill:#ffff00;fill-opacity:0.992157;stroke-width:0.0558036"
       d=""
       id="path963"
       transform="matrix(0.26458333,0,0,0.26458333,4.01512,47.184054)" />
    <path
       style="fill:#ffff00;fill-opacity:0.992157;stroke-width:0.0558036"
       d="m 4.3496353,81.924688 c 0,-0.03732 0.1614764,-0.131831 0.3478999,-0.203632 0.5411928,-0.208441 2.5661852,-0.915601 5.2994215,-1.850643 4.8325283,-1.653212 7.8889843,-2.727007 11.7857143,-4.140562 4.669288,-1.693802 9.9154,-3.677684 14.147755,-5.350147 0.500158,-0.197644 0.642979,-0.241844 0.571738,-0.176944 -0.0231,0.02105 -1.87916,0.747915 -3.837797,1.502957 -6.443103,2.483775 -12.275021,4.619074 -19.810267,7.253334 -3.9028225,1.364395 -5.7732229,2.056261 -5.6443346,2.087856 0.2532029,0.06207 8.7849126,-2.733406 14.1822806,-4.646922 3.005519,-1.06554 7.215426,-2.630877 10.825893,-4.025307 1.38942,-0.536621 3.78506,-1.474687 4.270937,-1.672381 0.02083,-0.0085 0.02758,0.0033 0.02232,0.03884 -0.0066,0.04489 -0.111757,0.09211 -0.878081,0.394472 -9.185893,3.624399 -17.789749,6.709713 -25.46875,9.133007 -3.606069,1.137982 -5.8147317,1.767023 -5.8147317,1.656071 z"
       id="path965"
       transform="matrix(0.26458333,0,0,0.26458333,4.01512,47.184054)" />
    <path
       style="fill:#ffff00;fill-opacity:0.992157;stroke-width:0.0558036"
       d="m 7.2990875,80.998465 c 0.060612,-0.06061 2.6896,-1.014261 5.6219765,-2.039336 5.434658,-1.899802 9.474771,-3.356731 14.029018,-5.059085 3.094433,-1.156684 7.130777,-2.705502 9.447544,-3.625193 l 0.117188,-0.04652 v 0.221224 0.221224 l -0.340402,0.133645 c -0.187221,0.0735 -0.817522,0.321208 -1.40067,0.550452 -4.826459,1.89735 -10.336093,3.956057 -14.397321,5.379644 -5.21882,1.829359 -13.2668605,4.453472 -13.0773335,4.263945 z"
       id="path967"
       transform="matrix(0.26458333,0,0,0.26458333,4.01512,47.184054)" />
    <path
       style="fill:#ffff00;fill-opacity:0.992157;stroke-width:0.223214"
       d=""
       id="path969"
       transform="matrix(0.26458333,0,0,0.26458333,4.01512,47.184054)" />
    <path
       style="fill:#ffff00;fill-opacity:0.992157;stroke-width:0.223214"
       d=""
       id="path971"
       transform="matrix(0.26458333,0,0,0.26458333,4.01512,47.184054)" />
    <path
       style="fill:#ffff00;fill-opacity:0.992157;stroke-width:0.223214"
       d=""
       id="path973"
       transform="matrix(0.26458333,0,0,0.26458333,4.01512,47.184054)" />
    <path
       style="fill:#ffff00;fill-opacity:0.992157;stroke-width:0.0789182"
       d=""
       id="path975"
       transform="matrix(0.26458333,0,0,0.26458333,4.01512,47.184054)" />
    <path
       style="fill:#ffff00;fill-opacity:0.992157;stroke-width:0.0789182"
       d=""
       id="path979"
       transform="matrix(0.26458333,0,0,0.26458333,4.01512,47.184054)" />
    <path
       style="fill:#ffff00;fill-opacity:0.992157;stroke-width:0.0789182"
       d=""
       id="path981"
       transform="matrix(0.26458333,0,0,0.26458333,4.01512,47.184054)" />
    <path
       style="fill:#ffff00;fill-opacity:0.992157;stroke-width:0.0789182"
       d=""
       id="path983"
       transform="matrix(0.26458333,0,0,0.26458333,4.01512,47.184054)" />
    <path
       style="fill:#ffff00;fill-opacity:0.992157;stroke-width:0.0789182"
       d=""
       id="path985"
       transform="matrix(0.26458333,0,0,0.26458333,4.01512,47.184054)" />
    <path
       style="fill:#ffff00;fill-opacity:0.992157;stroke-width:0.0789182"
       d=""
       id="path987"
       transform="matrix(0.26458333,0,0,0.26458333,4.01512,47.184054)" />
    <path
       style="fill:#ffff00;fill-opacity:0.992157;stroke-width:0.0789182"
       d="m 139.76078,21.575988 c -0.0271,-0.01065 0.10069,-0.08705 0.31285,-0.187102 0.19721,-0.093 0.36439,-0.16327 0.37151,-0.15615 0.0121,0.01215 -0.60374,0.369126 -0.62759,0.363752 -0.006,-0.0014 -0.0316,-0.0106 -0.0568,-0.0205 z"
       id="path989"
       transform="matrix(0.26458333,0,0,0.26458333,4.01512,47.184054)" />
    <path
       style="fill:#ffff00;fill-opacity:0.992157;stroke-width:0.0789182"
       d=""
       id="path991"
       transform="matrix(0.26458333,0,0,0.26458333,4.01512,47.184054)" />
    <path
       style="fill:#ffff00;fill-opacity:0.992157;stroke-width:0.0789182"
       d="m 138.46751,22.060666 c 0.0459,-0.04129 2.18313,-1.127502 2.19503,-1.115606 0.008,0.0081 -0.0364,0.04493 -0.0989,0.08182 -0.0625,0.03689 -0.10663,0.07849 -0.098,0.09244 0.009,0.01395 -0.0793,0.06639 -0.19545,0.116539 -0.11612,0.05014 -0.5575,0.258898 -0.98085,0.463899 -0.65493,0.317142 -0.88601,0.418627 -0.8218,0.360906 z"
       id="path993"
       transform="matrix(0.26458333,0,0,0.26458333,4.01512,47.184054)" />
    <path
       style="fill:#ffff00;fill-opacity:0.992157;stroke-width:0.0789182"
       d="m 138.46751,22.060666 c 0.0459,-0.04129 2.18313,-1.127502 2.19503,-1.115606 0.008,0.0081 -0.0364,0.04493 -0.0989,0.08182 -0.0625,0.03689 -0.10663,0.07849 -0.098,0.09244 0.009,0.01395 -0.0793,0.06639 -0.19545,0.116539 -0.11612,0.05014 -0.5575,0.258898 -0.98085,0.463899 -0.65493,0.317142 -0.88601,0.418627 -0.8218,0.360906 z"
       id="path995"
       transform="matrix(0.26458333,0,0,0.26458333,4.01512,47.184054)" />
    <path
       style="fill:#ffff00;fill-opacity:0.992157;stroke-width:0.0789182"
       d="m 139.00153,21.784898 c 0.46469,-0.248097 1.48932,-0.75899 1.50026,-0.748048 0.0418,0.04184 -0.17718,0.166173 -0.90043,0.511167 -0.86963,0.414816 -1.11348,0.511114 -0.59983,0.236881 z"
       id="path997"
       transform="matrix(0.26458333,0,0,0.26458333,4.01512,47.184054)" />
    <path
       style="fill:#ffff00;fill-opacity:0.992157;stroke-width:0.0789182"
       d=""
       id="path999"
       transform="matrix(0.26458333,0,0,0.26458333,4.01512,47.184054)" />
    <path
       style="fill:#ffff00;fill-opacity:0.992157;stroke-width:0.0789182"
       d="m 139.61098,21.799759 c 0.0111,-0.01111 0.23992,-0.144273 0.50848,-0.295927 0.35894,-0.202695 0.49272,-0.264172 0.50503,-0.232085 0.0118,0.03076 -0.13198,0.118122 -0.48706,0.295926 -0.46989,0.235291 -0.57678,0.282414 -0.52645,0.232086 z"
       id="path1001"
       transform="matrix(0.26458333,0,0,0.26458333,4.01512,47.184054)" />
    <path
       style="fill:#ffff00;fill-opacity:0.992157;stroke-width:0.0789182"
       d=""
       id="path1003"
       transform="matrix(0.26458333,0,0,0.26458333,4.01512,47.184054)" />
    <path
       style="fill:#ffff00;fill-opacity:0.992157;stroke-width:0.0789182"
       d=""
       id="path1005"
       transform="matrix(0.26458333,0,0,0.26458333,4.01512,47.184054)" />
    <path
       style="fill:#ffff00;fill-opacity:0.992157;stroke-width:0.0789182"
       d=""
       id="path1007"
       transform="matrix(0.26458333,0,0,0.26458333,4.01512,47.184054)" />
    <path
       style="fill:#ffff00;fill-opacity:0.992157;stroke-width:0.0789182"
       d="m 95.882627,43.782877 0.002,-0.134161 8.955223,-4.473415 c 10.31857,-5.154447 14.38206,-7.204602 22.40288,-11.302937 4.083,-2.08626 5.8873,-3.018197 5.8873,-3.040854 0,-0.01707 0.0352,-0.03473 -2.56655,1.288713 -1.19458,0.60766 -2.17881,1.097986 -2.18718,1.089614 -0.008,-0.0084 1.4875,-0.782755 3.32416,-1.720851 4.8606,-2.482607 5.89649,-3.00619 5.94638,-3.005551 0.0674,8.63e-4 -0.16469,0.123698 -1.85727,0.983066 -0.85508,0.434147 -1.55469,0.795783 -1.55469,0.803638 0,0.0079 0.0249,0.0013 0.0552,-0.01466 0.32145,-0.168421 5.34711,-2.623075 5.4059,-2.640372 0.17395,-0.05118 -0.0243,0.06235 -1.08907,0.62353 -4.85368,2.558198 -12.24234,6.362776 -22.16023,11.410762 -3.50778,1.785385 -9.47232,4.787844 -12.6269,6.35619 -3.04271,1.512725 -7.905142,3.911453 -7.92887,3.911453 -0.0057,0 -0.0094,-0.06037 -0.0083,-0.134161 z"
       id="path1009"
       transform="matrix(0.26458333,0,0,0.26458333,4.01512,47.184054)" />
    <path
       style="fill:#ffff00;fill-opacity:0.992157;stroke-width:0.0789182"
       d=""
       id="path1011"
       transform="matrix(0.26458333,0,0,0.26458333,4.01512,47.184054)" />
    <path
       style="fill:#ffff00;fill-opacity:0.992157;stroke-width:0.0789182"
       d=""
       id="path1013"
       transform="matrix(0.26458333,0,0,0.26458333,4.01512,47.184054)" />
    <path
       style="fill:#ffff00;fill-opacity:0.992157;stroke-width:0.0789182"
       d=""
       id="path1015"
       transform="matrix(0.26458333,0,0,0.26458333,4.01512,47.184054)" />
    <path
       style="fill:#ffff00;fill-opacity:0.992157;stroke-width:0.0789182"
       d=""
       id="path1017"
       transform="matrix(0.26458333,0,0,0.26458333,4.01512,47.184054)" />
    <path
       style="fill:#ffff00;fill-opacity:0.99215698"
       d="m 138.81212,21.879799 c 0.026,-0.01452 0.057,-0.03133 0.092,-0.05004 0.46553,-0.248734 1.65316,-0.832156 1.66829,-0.817029 0.009,0.0095 0.0612,-0.0095 0.11495,-0.04206 0.15001,-0.09095 1.26165,-0.668783 3.15233,-1.640085 3.26225,-1.675922 8.84383,-4.523237 15.80686,-8.062007 4.27694,-2.1736371 4.29315,-2.1816028 4.29315,-2.109851 0,0.047595 -0.18869,0.15736 -0.87599,0.5095835 -1.70411,0.8733075 -4.81504,2.4825625 -12.4454,6.4378725 -9.67537,5.015374 -9.94538,5.154381 -9.96812,5.131649 -0.0103,-0.01029 -0.002,-0.03552 0.0187,-0.05607 0.0205,-0.02054 0.0374,-0.04782 0.0374,-0.06061 0,-0.04038 -0.20373,-0.04479 -0.23675,-0.0051 -0.0174,0.02086 -0.421,0.223283 -0.89697,0.449834 -0.83419,0.397058 -1.12354,0.516528 -0.76032,0.313923 z"
       id="path1019"
       transform="matrix(0.26458333,0,0,0.26458333,4.01512,47.184054)"
       sodipodi:nodetypes="csccsssssscscscc" />
    <path
       style="fill:#ffff00;fill-opacity:0.992157;stroke-width:0.0789182"
       d=""
       id="path1021"
       transform="matrix(0.26458333,0,0,0.26458333,4.01512,47.184054)" />
    <path
       style="fill:#ffff00;fill-opacity:0.992157;stroke-width:0.0394591"
       d="m 137.97638,22.308997 c 0.0316,-0.03068 0.48061,-0.255634 0.48061,-0.240797 0,0.0086 0.016,0.01257 0.0355,0.0088 0.0396,-0.0076 -0.19716,0.110066 -0.3881,0.192867 -0.12933,0.05608 -0.15297,0.0633 -0.12803,0.0391 z"
       id="path1023"
       transform="matrix(0.26458333,0,0,0.26458333,4.01512,47.184054)" />
    <path
       style="fill:#ffff00;fill-opacity:0.992157;stroke-width:0.0394591"
       d="m 139.65655,21.779946 c 0,-0.01168 0.72612,-0.421216 0.83169,-0.469083 0.10505,-0.04763 0.13111,-0.05365 0.13111,-0.03025 0,0.02592 -0.17347,0.125105 -0.55568,0.317726 -0.34316,0.172935 -0.40712,0.201469 -0.40712,0.18161 z"
       id="path1025"
       transform="matrix(0.26458333,0,0,0.26458333,4.01512,47.184054)" />
    <path
       style="fill:#ffff00;fill-opacity:0.992157;stroke-width:0.0394591"
       d="m 139.41979,21.906925 c 0,-0.0034 0.0346,-0.02842 0.0768,-0.05552 0.059,-0.03786 0.085,-0.04622 0.1124,-0.0361 0.0317,0.01173 0.0249,0.0178 -0.062,0.05552 -0.0929,0.04029 -0.12714,0.05001 -0.12714,0.0361 z"
       id="path1027"
       transform="matrix(0.26458333,0,0,0.26458333,4.01512,47.184054)" />
    <path
       style="fill:#ffff00;fill-opacity:0.992157;stroke-width:0.0394591"
       d=""
       id="path1029"
       transform="matrix(0.26458333,0,0,0.26458333,4.01512,47.184054)" />
    <path
       style="fill:#ffff00;fill-opacity:0.992157;stroke-width:0.0394591"
       d="m 112.88751,35.301887 v -0.154316 l 0.65896,-0.328829 c 3.77164,-1.882075 15.20016,-7.696498 18.53393,-9.429398 0.86739,-0.450868 0.99891,-0.520603 1.03383,-0.548172 0.069,-0.05443 -0.88535,0.429491 -7.74976,3.929831 -4.59709,2.344172 -5.46608,2.785969 -5.47984,2.785969 -0.0675,0 0.43012,-0.258039 4.61174,-2.391372 1.49313,-0.761751 3.50318,-1.788034 4.46677,-2.280631 7.17976,-3.67036 8.01675,-4.096374 8.52787,-4.340531 0.20225,-0.09661 0.37517,-0.173184 0.38426,-0.170152 0.0364,0.01212 -0.58043,0.334395 -2.575,1.345452 -0.96322,0.488257 -1.26787,0.649261 -0.96281,0.508823 0.14236,-0.06553 1.48005,-0.722075 3.10938,-1.526089 1.19694,-0.590645 2.00307,-0.982188 2.19392,-1.0656 0.0564,-0.02466 0.12035,-0.06097 0.14206,-0.08069 0.0495,-0.04495 0.53017,-0.279141 0.55558,-0.270672 0.0257,0.0086 -0.48024,0.296206 -0.52103,0.296206 -0.018,0 -0.0373,0.0074 -0.0428,0.01642 -0.0178,0.02884 -0.11422,0.08321 -0.66252,0.373731 -3.67185,1.945523 -10.99496,5.727895 -18.43528,9.521787 -0.65108,0.33199 -1.53535,0.783063 -1.96506,1.002386 -1.12128,0.572297 -2.42843,1.236503 -3.85121,1.956921 -0.68146,0.345053 -1.40415,0.71194 -1.60598,0.815304 l -0.36697,0.187934 z"
       id="path1031"
       transform="matrix(0.26458333,0,0,0.26458333,4.01512,47.184054)" />
    <path
       style="fill:#ffff00;fill-opacity:0.992157;stroke-width:0.0394591"
       d=""
       id="path1033"
       transform="matrix(0.26458333,0,0,0.26458333,4.01512,47.184054)" />
    <path
       style="fill:#ffff00;fill-opacity:0.992157;stroke-width:0.0394591"
       d="m 112.88779,35.301866 2.9e-4,-0.154118 1.23478,-0.619759 c 5.61374,-2.817641 18.49298,-9.383734 18.9598,-9.666088 0.24622,-0.148917 -0.28311,0.11933 -7.96284,4.035364 -4.65121,2.371738 -5.22602,2.663324 -5.23419,2.655157 -0.0192,-0.01919 0.71347,-0.399297 4.11355,-2.134175 1.69714,-0.865955 3.72139,-1.899409 4.49834,-2.296563 8.34116,-4.263764 8.61295,-4.401993 9.13585,-4.646366 0.14146,-0.06611 0.26568,-0.120178 0.27604,-0.120146 0.0589,1.85e-4 -0.46023,0.273504 -2.11985,1.116147 -0.82904,0.420928 -1.51444,0.772165 -1.52312,0.780525 -0.0292,0.02811 0.63696,-0.296952 3.40137,-1.65977 1.05336,-0.519289 1.69216,-0.82947 1.97243,-0.957744 0.0648,-0.02967 0.12164,-0.05993 0.12627,-0.06725 0.0237,-0.03755 0.57097,-0.308179 0.60216,-0.297783 0.008,0.0027 -0.0653,0.05226 -0.16322,0.110127 -0.27003,0.159612 -0.38463,0.219254 -0.39718,0.206701 -0.006,-0.0063 -0.0163,-0.0041 -0.0224,0.0047 -0.0307,0.04493 -0.20633,0.140001 -1.94447,1.052361 -4.84896,2.545248 -11.93249,6.192273 -20.17148,10.385493 -1.13099,0.575616 -4.38802,2.229039 -4.6838,2.377717 l -0.0986,0.04959 z"
       id="path1035"
       transform="matrix(0.26458333,0,0,0.26458333,4.01512,47.184054)" />
    <path
       style="fill:#ffff00;fill-opacity:0.992157;stroke-width:0.0394591"
       d="m 112.88787,35.301783 3.7e-4,-0.154035 1.13077,-0.56821 c 5.44463,-2.735906 14.95955,-7.579997 18.3455,-9.339778 0.60922,-0.316629 0.74183,-0.388309 0.74183,-0.400976 0,-0.0043 -0.29653,0.142865 -0.65897,0.327043 -1.74842,0.888503 -3.62524,1.844276 -6.8935,3.510533 -5.2045,2.65341 -5.65987,2.884434 -5.6685,2.875802 -0.004,-0.0043 0.0832,-0.05734 0.19447,-0.117847 0.48774,-0.265242 0.60255,-0.324156 5.7897,-2.970979 0.65108,-0.332221 2.13908,-1.092318 3.30668,-1.689105 1.16759,-0.596787 2.91129,-1.488032 3.87488,-1.980545 3.6504,-1.865804 4.79079,-2.438573 4.85521,-2.438573 0.0632,0 -0.40382,0.246392 -2.10048,1.108218 -0.82062,0.416841 -1.49914,0.764643 -1.50783,0.772893 -0.0281,0.02667 0.35785,-0.161699 3.43294,-1.675675 0.58597,-0.288493 1.23586,-0.606407 1.44421,-0.706477 0.20834,-0.10007 0.42142,-0.202457 0.47351,-0.227527 0.0521,-0.02507 0.13731,-0.07257 0.1894,-0.105561 0.1102,-0.0698 0.50891,-0.258924 0.53061,-0.251692 0.008,0.0027 -0.0653,0.05226 -0.16322,0.110127 -0.23781,0.140571 -0.39107,0.223211 -0.39107,0.210878 0,-0.0056 -0.0302,0.01049 -0.0671,0.03566 -0.25243,0.172181 -6.27573,3.309229 -12.18102,6.344097 -4.19104,2.153883 -12.73907,6.513989 -14.51699,7.404715 l -0.16178,0.08105 z"
       id="path1037"
       transform="matrix(0.26458333,0,0,0.26458333,4.01512,47.184054)" />
    <path
       style="fill:#ffff00;fill-opacity:0.992157;stroke-width:0.0394591"
       d=""
       id="path1043"
       transform="matrix(0.26458333,0,0,0.26458333,4.01512,47.184054)" />
    <path
       style="fill:#ffff00;fill-opacity:0.992157;stroke-width:0.0394591"
       d="m 137.13599,22.823893 c 0.68623,-0.34639 2.64779,-1.30793 2.6545,-1.301214 0.0147,0.01466 -0.0924,0.07463 -0.35008,0.196046 -0.35884,0.169095 -1.61203,0.781801 -2.1662,1.059086 -0.24518,0.122677 -0.45471,0.22267 -0.46562,0.222205 -0.0109,-4.65e-4 0.13642,-0.07972 0.3274,-0.176123 z"
       id="path1045"
       transform="matrix(0.26458333,0,0,0.26458333,4.01512,47.184054)" />
    <path
       style="fill:#ffff00;fill-opacity:0.992157;stroke-width:0.0394591"
       d="m 137.7121,22.503997 c 0,-0.0042 0.0302,-0.02289 0.0671,-0.04162 0.0369,-0.01873 0.0955,-0.05335 0.13021,-0.07695 0.0347,-0.0236 0.13392,-0.07303 0.22044,-0.109846 0.0865,-0.03682 0.20531,-0.09112 0.26398,-0.120665 0.0587,-0.02955 0.11574,-0.05334 0.1268,-0.05287 0.0193,8.15e-4 -0.77238,0.406933 -0.79667,0.408676 -0.007,4.67e-4 -0.0118,-0.0026 -0.0118,-0.0067 z"
       id="path1047"
       transform="matrix(0.26458333,0,0,0.26458333,4.01512,47.184054)" />
    <path
       style="fill:#ffff00;fill-opacity:0.992157;stroke-width:0.0394591"
       d="m 138.57716,21.972081 c -0.21969,0.113182 -0.44916,0.234609 -0.50993,0.269837 -0.0608,0.03523 -0.1531,0.08353 -0.20519,0.107343 -0.0521,0.02381 -0.18562,0.08783 -0.29675,0.142259 -0.16887,0.08271 -0.26114,0.119984 -0.23068,0.09318 0.4097,-0.213063 0.82533,-0.414688 1.24255,-0.612619 z"
       id="path1049"
       transform="matrix(0.26458333,0,0,0.26458333,4.01512,47.184054)"
       sodipodi:nodetypes="cssscc" />
    <path
       style="fill:#ffff00;fill-opacity:0.992157;stroke-width:0.0394591"
       d=""
       id="path1051"
       transform="matrix(0.26458333,0,0,0.26458333,4.01512,47.184054)" />
    <path
       style="fill:#ffff00;fill-opacity:0.992157;stroke-width:0.0394591"
       d=""
       id="path1053"
       transform="matrix(0.26458333,0,0,0.26458333,4.01512,47.184054)" />
    <path
       style="fill:#ffff00;fill-opacity:0.992157;stroke-width:0.0394591"
       d="m 141.3739,20.59346 c 0,-0.0043 -0.0497,0.01715 -0.11049,0.04775 -0.0608,0.0306 -0.11048,0.05919 -0.11048,0.06353 0,0.0043 0.0497,-0.01715 0.11048,-0.04775 0.0608,-0.0306 0.11049,-0.05919 0.11049,-0.06353 z"
       id="path1055"
       transform="matrix(0.26458333,0,0,0.26458333,4.01512,47.184054)"
       sodipodi:nodetypes="sssss" />
    <path
       style="fill:#ffff00;fill-opacity:0.992157;stroke-width:0.0394591"
       d="m 139.00636,21.730384 c 0,-0.01279 0.44462,-0.231543 0.45319,-0.222973 0.007,0.007 -0.42466,0.230759 -0.44509,0.230759 -0.004,0 -0.008,-0.0035 -0.008,-0.0078 z"
       id="path1057"
       transform="matrix(0.26458333,0,0,0.26458333,4.01512,47.184054)" />
    <path
       style="fill:#ffffff;fill-opacity:0.992157;stroke-width:0.0394591"
       d=""
       id="path1059"
       transform="matrix(0.26458333,0,0,0.26458333,4.01512,47.184054)" />
    <path
       style="fill:#ffffff;fill-opacity:0.992157;stroke-width:0.0394591"
       d=""
       id="path1061"
       transform="matrix(0.26458333,0,0,0.26458333,4.01512,47.184054)" />
    <path
       style="fill:#ffffff;fill-opacity:0.992157;stroke-width:0.0394591"
       d=""
       id="path1063"
       transform="matrix(0.26458333,0,0,0.26458333,4.01512,47.184054)" />
    <path
       style="fill:#ffd5d5;fill-opacity:0.992157;stroke-width:0.0394591"
       d=""
       id="path1065"
       transform="matrix(0.26458333,0,0,0.26458333,4.01512,47.184054)" />
    <path
       style="fill:#ffd5d5;fill-opacity:0.992157;stroke-width:0.0394591"
       d=""
       id="path1067"
       transform="matrix(0.26458333,0,0,0.26458333,4.01512,47.184054)" />
    <path
       style="fill:#ffff00;fill-opacity:0.992157;stroke-width:0.0394591"
       d="m 126.90042,28.521742 1.1e-4,-0.05185 1.40858,-0.724729 c 5.73081,-2.948562 12.52196,-6.466558 22.28243,-11.542891 4.496,-2.338328 5.80857,-3.018633 9.58067,-4.965667 0.66144,-0.341415 0.75034,-0.383233 0.75494,-0.355139 0.003,0.01751 0.003,0.03374 0,0.03606 -0.003,0.0023 -0.43493,0.226518 -0.96013,0.498221 -2.08113,1.076631 -6.71491,3.484771 -10.4172,5.41373 -9.33014,4.861175 -15.66564,8.147524 -21.28423,11.040557 -0.72052,0.371 -1.32247,0.681074 -1.33766,0.689053 -0.0237,0.01243 -0.0276,0.0071 -0.0275,-0.03734 z"
       id="path1071"
       transform="matrix(0.26458333,0,0,0.26458333,4.01512,47.184054)" />
    <path
       style="fill:#ffff00;fill-opacity:0.992157;stroke-width:0.0394591"
       d=""
       id="path1073"
       transform="matrix(0.26458333,0,0,0.26458333,4.01512,47.184054)" />
    <path
       style="fill:#ffff00;fill-opacity:0.992157;stroke-width:0.0394591"
       d="m 139.17998,22.094751 c 0,-0.0035 0.0479,-0.03275 0.10653,-0.06491 0.0586,-0.03216 0.1101,-0.06382 0.11444,-0.07037 0.004,-0.0065 0.0612,-0.03508 0.12627,-0.06341 0.0651,-0.02833 0.16704,-0.0759 0.22653,-0.105712 0.0595,-0.02981 0.11136,-0.051 0.11528,-0.04708 0.007,0.0066 -0.66166,0.357929 -0.68066,0.357929 -0.005,0 -0.008,-0.0029 -0.008,-0.0064 z"
       id="path1075"
       transform="matrix(0.26458333,0,0,0.26458333,4.01512,47.184054)" />
    <path
       style="fill:#ffff00;fill-opacity:0.992157;stroke-width:0.0394591"
       d=""
       id="path1077"
       transform="matrix(0.26458333,0,0,0.26458333,4.01512,47.184054)" />
    <path
       style="fill:#ffff00;fill-opacity:0.992157;stroke-width:0.0394591"
       d="m 139.3801,21.885684 c -0.006,-0.006 0.0464,-0.04239 0.11652,-0.08078 0.0701,-0.03839 0.13079,-0.06651 0.13481,-0.06248 0.004,0.004 -0.0444,0.03845 -0.10764,0.0765 -0.14091,0.08482 -0.13048,0.07997 -0.14369,0.06676 z"
       id="path1079"
       transform="matrix(0.26458333,0,0,0.26458333,4.01512,47.184054)" />
    <path
       style="fill:#ffff00;fill-opacity:0.992157;stroke-width:0.0394591"
       d="m 126.90061,28.173947 2.9e-4,-0.130215 0.4377,-0.223226 c 2.75657,-1.405849 5.74889,-2.949915 5.74889,-2.966483 0,-0.01295 -1.36041,0.675886 -4.94817,2.505478 -0.9257,0.472068 -1.23244,0.621781 -1.23646,0.603491 -0.003,-0.01338 -0.003,-0.02608 0,-0.02823 0.003,-0.0021 1.3797,-0.705893 3.05947,-1.563882 1.67978,-0.857988 3.5016,-1.788614 4.04851,-2.068057 2.78932,-1.42522 3.80648,-1.934202 3.86256,-1.932809 0.0723,0.0018 -0.32026,0.20795 -2.64348,1.388329 -0.46672,0.237129 -0.84609,0.43363 -0.84305,0.43667 0.003,0.003 0.48079,-0.227845 1.06165,-0.513076 1.32805,-0.652126 1.48105,-0.728874 1.48758,-0.746171 0.003,-0.0077 0.0118,-0.01001 0.0197,-0.0051 0.008,0.0049 0.0144,9.81e-4 0.0144,-0.0087 0,-0.0097 0.007,-0.01326 0.0158,-0.0079 0.009,0.0054 0.0158,0.0018 0.0158,-0.0079 0,-0.0097 0.007,-0.0135 0.0149,-0.0084 0.0194,0.01196 0.69567,-0.32553 0.68546,-0.342047 -0.004,-0.0069 0.002,-0.01363 0.0129,-0.01495 0.0114,-0.0013 0.0278,-0.0041 0.0365,-0.0061 0.009,-0.002 0.0251,-0.0045 0.0364,-0.0055 0.0114,-0.001 0.0167,-0.0082 0.0119,-0.01595 -0.0112,-0.01808 0.0359,-0.03666 0.0581,-0.02294 0.0107,0.0066 0.0121,0.0028 0.004,-0.01052 -0.009,-0.01531 -0.006,-0.01812 0.0142,-0.01051 0.0182,0.007 0.0234,0.0044 0.0158,-0.0079 -0.008,-0.01232 -0.002,-0.01489 0.0158,-0.0079 0.0149,0.0057 0.0236,0.0047 0.0192,-0.0023 -0.01,-0.01605 0.16113,-0.10107 0.17995,-0.08944 0.0164,0.01015 0.47407,-0.21508 0.46543,-0.229056 -0.009,-0.01396 0.25985,-0.144192 0.2763,-0.134029 0.0167,0.01031 0.28486,-0.120173 0.27611,-0.134333 -0.009,-0.01424 0.1651,-0.09685 0.18195,-0.08643 0.008,0.0048 0.0695,-0.01956 0.13711,-0.05414 0.0676,-0.03458 0.11233,-0.06352 0.0993,-0.06432 -0.0293,-0.0018 0.0777,-0.0619 0.11048,-0.06204 0.0136,-5.9e-5 0.007,0.0095 -0.0158,0.02245 -0.0217,0.01241 -0.0319,0.02281 -0.0226,0.02312 0.009,3.08e-4 0.0626,-0.02791 0.11838,-0.0627 0.19506,-0.121569 0.62258,-0.32848 0.64089,-0.310175 0.009,0.0095 -0.32899,0.210367 -0.46816,0.277903 -0.0652,0.03165 -0.16829,0.08656 -0.22906,0.122037 -0.31348,0.183004 -3.55344,1.88009 -6.84221,3.583935 -2.319,1.201433 -5.91037,3.050257 -5.92515,3.050257 -0.005,0 -0.009,-0.0586 -0.009,-0.130215 z"
       id="path1081"
       transform="matrix(0.26458333,0,0,0.26458333,4.01512,47.184054)" />
    <path
       style="fill:#ffff00;fill-opacity:0.992157;stroke-width:0.0394591"
       d=""
       id="path1083"
       transform="matrix(0.26458333,0,0,0.26458333,4.01512,47.184054)" />
    <path
       style="fill:#ffff00;fill-opacity:0.992157;stroke-width:0.0394591"
       d=""
       id="path1085"
       transform="matrix(0.26458333,0,0,0.26458333,4.01512,47.184054)" />
    <path
       style="fill:#ffff00;fill-opacity:0.992157;stroke-width:0.0394591"
       d="m 126.90031,28.173871 v -0.130292 l 1.07723,-0.551065 c 2.90686,-1.48702 5.07839,-2.6085 5.07839,-2.622718 0,-0.01209 -0.99326,0.491219 -5.22356,2.646921 -0.70029,0.35686 -0.92546,0.46501 -0.92951,0.446447 -0.003,-0.01347 -0.003,-0.02642 0,-0.02877 0.005,-0.0038 4.97766,-2.544994 7.74721,-3.958879 2.44057,-1.245933 3.18411,-1.615291 3.22456,-1.601809 0.0384,0.0128 -0.37359,0.231384 -1.8356,0.973889 -1.42919,0.725839 -1.56294,0.79458 -1.55721,0.800308 0.008,0.008 2.41322,-1.17706 2.44208,-1.203176 0.0139,-0.01257 0.03,-0.01811 0.0358,-0.0123 0.006,0.0058 0.0106,0.0011 0.0106,-0.01049 0,-0.01158 0.004,-0.01665 0.01,-0.01127 0.005,0.0054 0.0202,-6.11e-4 0.0328,-0.0133 0.0127,-0.01269 0.0296,-0.01903 0.0376,-0.0141 0.008,0.0049 0.0145,0.001 0.0145,-0.0087 0,-0.0097 0.007,-0.01326 0.0158,-0.0079 0.009,0.0054 0.0158,0.0018 0.0158,-0.0079 0,-0.0097 0.007,-0.01326 0.0158,-0.0079 0.009,0.0054 0.0158,0.0018 0.0158,-0.0079 0,-0.0097 0.007,-0.01326 0.0158,-0.0079 0.009,0.0054 0.0158,0.0018 0.0158,-0.0079 0,-0.0097 0.007,-0.01326 0.0158,-0.0079 0.009,0.0054 0.0158,0.0018 0.0158,-0.0079 0,-0.0097 0.007,-0.01326 0.0158,-0.0079 0.009,0.0054 0.0158,0.0018 0.0158,-0.0079 0,-0.0097 0.007,-0.01326 0.0158,-0.0079 0.009,0.0054 0.0158,0.0018 0.0158,-0.0079 0,-0.0097 0.007,-0.01345 0.0151,-0.0083 0.0195,0.01206 0.30057,-0.128778 0.30057,-0.150608 0,-0.0091 0.008,-0.0115 0.0182,-0.0053 0.01,0.0062 0.026,5.34e-4 0.0356,-0.01255 0.0246,-0.03363 0.13927,-0.08866 0.16548,-0.0794 0.0123,0.0043 0.0175,6.42e-4 0.0119,-0.0084 -0.0121,-0.0196 0.0333,-0.03955 0.0568,-0.02499 0.009,0.0057 0.0126,0.0035 0.007,-0.0048 -0.0121,-0.01956 0.22174,-0.135892 0.24467,-0.121723 0.0111,0.0069 0.0127,0.0033 0.004,-0.01023 -0.009,-0.01531 -0.006,-0.01812 0.0142,-0.01051 0.0149,0.0057 0.0236,0.0047 0.0192,-0.0023 -0.01,-0.01601 0.16111,-0.101084 0.17987,-0.08949 0.0166,0.01023 0.2218,-0.08846 0.21314,-0.102477 -0.01,-0.01593 0.29222,-0.159641 0.31107,-0.147995 0.0112,0.0069 0.0127,0.0033 0.004,-0.01022 -0.009,-0.01531 -0.006,-0.01812 0.0142,-0.01051 0.0149,0.0057 0.0235,0.0045 0.019,-0.0026 -0.0102,-0.01645 0.0983,-0.06916 0.11764,-0.05719 0.0178,0.01103 0.0845,-0.02306 0.0712,-0.0364 -0.0146,-0.01464 0.21151,-0.116296 0.23138,-0.104014 0.0111,0.0069 0.0127,0.0032 0.004,-0.01025 -0.009,-0.01531 -0.006,-0.01812 0.0142,-0.01051 0.0149,0.0057 0.0234,0.0044 0.0189,-0.0029 -0.0102,-0.01651 0.0668,-0.05315 0.0863,-0.04109 0.008,0.0048 0.0339,-0.0019 0.058,-0.01495 0.0249,-0.0135 0.0336,-0.02433 0.0201,-0.02511 -0.013,-7.52e-4 0.0108,-0.01928 0.0529,-0.04118 0.0421,-0.0219 0.0858,-0.03624 0.0972,-0.03188 0.0114,0.0044 0.0551,-0.01405 0.0971,-0.04092 0.11451,-0.07322 0.58637,-0.299925 0.60873,-0.292472 0.0213,0.0071 -0.25493,0.175446 -0.4828,0.294162 -0.0793,0.04132 -0.27562,0.146543 -0.43622,0.233819 -0.62307,0.338602 -3.34971,1.766326 -5.87941,3.078568 -2.68532,1.392973 -6.63885,3.429132 -6.65821,3.429132 -0.006,0 -0.0104,-0.05863 -0.0104,-0.130291 z"
       id="path1087"
       transform="matrix(0.26458333,0,0,0.26458333,4.01512,47.184054)" />
    <path
       style="fill:#ffff00;fill-opacity:0.992157;stroke-width:0.0394591"
       d=""
       id="path1089"
       transform="matrix(0.26458333,0,0,0.26458333,4.01512,47.184054)" />
    <path
       style="fill:#ffff00;fill-opacity:0.992157;stroke-width:0.0394591"
       d="M 126.90031,28.173136 V 28.04211 l 0.31173,-0.159418 c 3.51834,-1.799295 5.74436,-2.946925 5.77286,-2.976216 0.0216,-0.02226 -0.53783,0.26125 -5.10601,2.58735 -0.73983,0.37672 -0.97196,0.488396 -0.97603,0.469558 -0.003,-0.01359 -0.003,-0.02667 0,-0.02905 0.003,-0.0024 1.16662,-0.59767 2.58596,-1.322863 1.41935,-0.725192 3.38323,-1.728612 4.36418,-2.229823 2.9882,-1.526797 4.03367,-2.048014 4.05838,-2.023298 0.0196,0.01964 -0.41602,0.249056 -2.08175,1.09624 -0.6751,0.343351 -1.22493,0.626797 -1.22184,0.629881 0.007,0.0071 2.17709,-1.06008 2.25348,-1.108258 0.1017,-0.06415 0.43653,-0.226552 0.44651,-0.216573 0.005,0.0053 0.01,10e-4 0.01,-0.0096 0,-0.01064 0.007,-0.01496 0.0158,-0.0096 0.009,0.0054 0.0158,0.0018 0.0158,-0.0079 0,-0.0097 0.007,-0.01326 0.0158,-0.0079 0.009,0.0054 0.0158,0.0018 0.0158,-0.0079 0,-0.0097 0.007,-0.01326 0.0158,-0.0079 0.009,0.0054 0.0158,0.0018 0.0158,-0.0079 0,-0.0097 0.007,-0.01326 0.0158,-0.0079 0.009,0.0054 0.0158,0.0018 0.0158,-0.0079 0,-0.0097 0.007,-0.01326 0.0158,-0.0079 0.009,0.0054 0.0158,0.0018 0.0158,-0.0079 0,-0.0097 0.007,-0.01363 0.0144,-0.0087 0.008,0.0049 0.0168,0.0026 0.0197,-0.0052 0.009,-0.02469 0.83476,-0.429412 0.85294,-0.418181 0.0113,0.007 0.0129,0.0034 0.005,-0.01013 -0.009,-0.01533 -0.006,-0.01812 0.0143,-0.01044 0.0277,0.01064 0.11269,-0.02425 0.12249,-0.05028 0.009,-0.02474 0.51898,-0.27196 0.53731,-0.26063 0.01,0.0059 0.0131,0.0037 0.008,-0.005 -0.0121,-0.01953 0.39634,-0.213828 0.41945,-0.199546 0.009,0.0056 0.0122,0.0032 0.007,-0.0053 -0.0115,-0.01855 0.19942,-0.123965 0.22114,-0.110545 0.008,0.0051 0.0421,-0.009 0.0751,-0.03146 0.0893,-0.06069 0.57352,-0.292945 0.59548,-0.285627 0.0208,0.0069 -0.24691,0.172253 -0.46308,0.285997 -0.0751,0.03948 -0.26682,0.142195 -0.42616,0.228246 -0.63722,0.344114 -2.77245,1.463446 -5.0406,2.642382 -2.87176,1.492682 -7.50164,3.879219 -7.52568,3.879219 -0.006,0 -0.011,-0.05896 -0.011,-0.131026 z"
       id="path1091"
       transform="matrix(0.26458333,0,0,0.26458333,4.01512,47.184054)" />
    <path
       style="fill:#ffff00;fill-opacity:0.992157;stroke-width:0.0394591"
       d=""
       id="path1093"
       transform="matrix(0.26458333,0,0,0.26458333,4.01512,47.184054)" />
    <path
       style="fill:#ffff00;fill-opacity:0.992157;stroke-width:0.0394591"
       d="m 126.90031,28.172743 v -0.13142 l 0.98253,-0.50245 c 2.69468,-1.378014 5.04631,-2.591498 5.07049,-2.616464 0.0195,-0.0201 -0.0556,0.01797 -5.01919,2.543663 -0.78182,0.397826 -1.02721,0.516163 -1.03128,0.497321 -0.003,-0.0136 -0.003,-0.02677 0,-0.02927 0.01,-0.0084 7.93482,-4.056347 9.12828,-4.662581 1.09709,-0.557278 1.75876,-0.881891 1.85458,-0.909849 0.17444,-0.0509 -0.39195,0.248996 -2.3401,1.239048 -0.44933,0.228352 -0.8138,0.418362 -0.80992,0.422244 0.004,0.0039 0.5775,-0.277311 1.2747,-0.624873 0.69721,-0.347561 1.27396,-0.631791 1.28167,-0.631622 0.008,1.7e-4 0.0184,-0.0067 0.0237,-0.01524 0.0156,-0.02505 1.09254,-0.556171 1.10818,-0.546506 0.008,0.0048 0.0142,8.49e-4 0.0142,-0.0089 0,-0.0097 0.007,-0.01326 0.0158,-0.0079 0.009,0.0054 0.0158,0.0018 0.0158,-0.0079 0,-0.0097 0.007,-0.01363 0.0144,-0.0087 0.008,0.0049 0.0168,0.0021 0.0197,-0.0063 0.007,-0.01957 1.1602,-0.586279 1.19922,-0.589219 0.0161,-0.0012 0.0293,-0.0078 0.0293,-0.01463 0,-0.0068 0.005,-0.01109 0.0118,-0.0095 0.007,0.0016 0.1431,-0.06229 0.30353,-0.142053 0.27401,-0.136222 0.38562,-0.179549 0.30809,-0.119605 -0.13829,0.10692 -1.54001,0.8537 -4.52202,2.409146 -3.12232,1.628641 -8.89106,4.604944 -8.9254,4.604944 -0.004,0 -0.008,-0.05914 -0.008,-0.131419 z"
       id="path1095"
       transform="matrix(0.26458333,0,0,0.26458333,4.01512,47.184054)" />
    <path
       style="fill:#ffff00;fill-opacity:0.992157;stroke-width:0.0394591"
       d=""
       id="path1099"
       transform="matrix(0.26458333,0,0,0.26458333,4.01512,47.184054)" />
    <path
       style="fill:#ffff00;fill-opacity:0.992157;stroke-width:0.0394591"
       d=""
       id="path1101"
       transform="matrix(0.26458333,0,0,0.26458333,4.01512,47.184054)" />
    <path
       style="fill:#ffff00;fill-opacity:0.992157;stroke-width:0.0394591"
       d="m 138.80117,21.959141 c 0.11719,-0.05986 0.22373,-0.108836 0.23675,-0.108836 0.013,0 -0.0722,0.04898 -0.1894,0.108836 -0.11719,0.05986 -0.22373,0.108837 -0.23676,0.108837 -0.013,0 0.0722,-0.04898 0.18941,-0.108837 z"
       id="path1103"
       transform="matrix(0.26458333,0,0,0.26458333,4.01512,47.184054)" />
    <path
       style="fill:#ffff00;fill-opacity:0.992157;stroke-width:0.0197295"
       d="m 139.86794,21.742869 c -0.003,-0.0079 0.0345,-0.03079 0.13135,-0.08004 0.0746,-0.03793 0.38241,-0.197612 0.68408,-0.354858 0.76817,-0.400421 2.30996,-1.201929 5.35459,-2.783628 5.89574,-3.062851 6.16732,-3.203296 6.18943,-3.200736 0.0164,0.0019 -0.0397,0.03412 -0.24303,0.139687 -0.14536,0.07547 -1.40604,0.731101 -2.80151,1.456952 -3.73069,1.940513 -9.30254,4.833709 -9.30898,4.833709 -9.2e-4,0 -0.004,-0.005 -0.006,-0.01109 z"
       id="path1105"
       transform="matrix(0.26458333,0,0,0.26458333,4.01512,47.184054)" />
    <path
       style="fill:#ffff00;fill-opacity:0.992157;stroke-width:0.0197295"
       d="m 140.36769,21.454197 c 0.007,-0.0047 0.0543,-0.03238 0.10629,-0.06154 0.0519,-0.02916 0.11054,-0.0685 0.13021,-0.08742 0.0197,-0.01892 0.0494,-0.0393 0.0661,-0.0453 0.0616,-0.02213 2.52822,-1.296453 7.13935,-3.688435 3.93233,-2.039866 4.34032,-2.250473 4.35488,-2.248006 0.009,0.0015 -0.71422,0.38117 -1.69436,0.889896 -3.10629,1.61227 -9.07538,4.71401 -9.87759,5.132725 -0.18849,0.09838 -0.2576,0.131591 -0.22492,0.108082 z"
       id="path1107"
       transform="matrix(0.26458333,0,0,0.26458333,4.01512,47.184054)" />
    <path
       style="fill:#ffff00;fill-opacity:0.992157;stroke-width:0.0197295"
       d="m 139.62906,21.743221 c -0.006,-0.0066 0.0271,-0.02847 0.12627,-0.08285 0.47008,-0.257662 0.7519,-0.419275 0.86293,-0.49485 0.072,-0.04899 0.0937,-0.05674 0.0513,-0.01829 -0.0646,0.0586 -0.27337,0.182619 -0.75959,0.451283 -0.11502,0.06356 -0.22334,0.124121 -0.2407,0.134587 -0.0233,0.01406 -0.0338,0.01671 -0.0402,0.01012 z"
       id="path1115"
       transform="matrix(0.26458333,0,0,0.26458333,4.01512,47.184054)" />
    <path
       style="fill:#ffff00;fill-opacity:0.992157;stroke-width:0.0197295"
       d="m 140.13094,21.435085 c 0,-0.0018 0.0293,-0.02017 0.0651,-0.04093 0.13828,-0.08013 0.25432,-0.156897 0.24107,-0.15947 -0.0139,-0.0027 -0.14178,0.04895 -0.27799,0.112296 -0.0431,0.02004 -0.0818,0.03529 -0.086,0.03389 -0.008,-0.0026 0.31081,-0.152964 0.46586,-0.219719 0.14937,-0.06432 0.16517,-0.0613 0.0555,0.01062 -0.0964,0.06321 -0.44633,0.266506 -0.45877,0.266506 -0.003,0 -0.005,-0.0014 -0.005,-0.0032 z"
       id="path1119"
       transform="matrix(0.26458333,0,0,0.26458333,4.01512,47.184054)" />
    <path
       style="fill:#ffff00;fill-opacity:0.992157;stroke-width:0.0197295"
       d=""
       id="path1121"
       transform="matrix(0.26458333,0,0,0.26458333,4.01512,47.184054)" />
    <path
       style="fill:#ffff00;fill-opacity:0.992157;stroke-width:0.0197295"
       d=""
       id="path1123"
       transform="matrix(0.26458333,0,0,0.26458333,4.01512,47.184054)" />
    <path
       style="fill:#ffff00;fill-opacity:0.992157;stroke-width:0.0197295"
       d=""
       id="path1129"
       transform="matrix(0.26458333,0,0,0.26458333,4.01512,47.184054)" />
    <path
       style="fill:#ffff00;fill-opacity:0.992157;stroke-width:0.0197295"
       d=""
       id="path1133"
       transform="matrix(0.26458333,0,0,0.26458333,4.01512,47.184054)" />
    <path
       style="fill:#ffff00;fill-opacity:0.992157;stroke-width:0.0197295"
       d=""
       id="path1135"
       transform="matrix(0.26458333,0,0,0.26458333,4.01512,47.184054)" />
    <path
       style="fill:#ffff00;fill-opacity:0.992157;stroke-width:0.0197295"
       d=""
       id="path1137"
       transform="matrix(0.26458333,0,0,0.26458333,4.01512,47.184054)" />
    <path
       style="fill:#ffff00;fill-opacity:0.992157;stroke-width:0.0197295"
       d=""
       id="path1139"
       transform="matrix(0.26458333,0,0,0.26458333,4.01512,47.184054)" />
    <path
       style="fill:#ffff00;fill-opacity:0.992157;stroke-width:0.0197295"
       d="m 140.58866,21.122609 c 0.007,-0.0042 0.0172,-0.0077 0.0237,-0.0077 0.0105,0 0.0105,8.5e-4 0,0.0077 -0.007,0.0042 -0.0172,0.0076 -0.0237,0.0076 -0.0105,0 -0.0105,-8.5e-4 0,-0.0076 z"
       id="path1141"
       transform="matrix(0.26458333,0,0,0.26458333,4.01512,47.184054)" />
    <path
       style="fill:#ffff00;fill-opacity:0.992157;stroke-width:0.0197295"
       d=""
       id="path1143"
       transform="matrix(0.26458333,0,0,0.26458333,4.01512,47.184054)" />
    <path
       style="fill:#ffff00;fill-opacity:0.992157;stroke-width:0.0197295"
       d=""
       id="path1147"
       transform="matrix(0.26458333,0,0,0.26458333,4.01512,47.184054)" />
    <path
       style="fill:#ffff00;fill-opacity:0.992157;stroke-width:0.0197295"
       d="m 138.86036,21.797438 c 0,-0.0021 0.032,-0.01992 0.071,-0.03954 0.0391,-0.01962 0.071,-0.03208 0.071,-0.0277 0,0.0044 0.006,0.0081 0.0138,0.0082 0.009,1.52e-4 0.002,0.0076 -0.0178,0.01969 -0.036,0.02216 -0.05,0.02511 -0.0353,0.0074 0.009,-0.01059 0.007,-0.01112 -0.0106,-0.0042 -0.0113,0.0043 -0.0348,0.01508 -0.0522,0.02393 -0.0325,0.01657 -0.04,0.01888 -0.04,0.01221 z"
       id="path1149"
       transform="matrix(0.26458333,0,0,0.26458333,4.01512,47.184054)" />
    <path
       style="fill:#ffff00;fill-opacity:0.992157;stroke-width:0.0197295"
       d=""
       id="path1151"
       transform="matrix(0.26458333,0,0,0.26458333,4.01512,47.184054)" />
    <path
       style="fill:#ffff00;fill-opacity:0.992157;stroke-width:0.0197295"
       d=""
       id="path1153"
       transform="matrix(0.26458333,0,0,0.26458333,4.01512,47.184054)" />
    <path
       style="fill:#ffff00;fill-opacity:0.992157;stroke-width:0.0197295"
       d="m 139.03398,21.71848 c 0,-0.0064 0.30124,-0.155205 0.30553,-0.150921 0.005,0.0045 -0.28909,0.154828 -0.30245,0.154828 -0.002,0 -0.003,-0.0018 -0.003,-0.0039 z"
       id="path1155"
       transform="matrix(0.26458333,0,0,0.26458333,4.01512,47.184054)" />
    <path
       style="fill:#ffff00;fill-opacity:0.992157;stroke-width:0.0197295"
       d=""
       id="path1157"
       transform="matrix(0.26458333,0,0,0.26458333,4.01512,47.184054)" />
    <path
       style="fill:#ffff00;fill-opacity:0.992157;stroke-width:0.0197295"
       d=""
       id="path1159"
       transform="matrix(0.26458333,0,0,0.26458333,4.01512,47.184054)" />
    <path
       style="fill:#ffff00;fill-opacity:0.992157;stroke-width:0.0197295"
       d="m 137.11271,23.175782 c 0.004,-0.0036 0.1975,-0.105411 0.42971,-0.22619 0.65897,-0.342735 1.53619,-0.806408 1.60796,-0.84992 0.0141,-0.0086 0.0256,-0.01197 0.0256,-0.0076 0,0.0044 0.005,0.0091 0.0117,0.01051 0.006,0.0014 -0.16848,0.09577 -0.38867,0.209712 -0.22018,0.113938 -0.68799,0.356245 -1.03957,0.53846 -0.35158,0.182214 -0.64261,0.33137 -0.64674,0.331456 -0.005,9.9e-5 -0.005,-0.0023 0,-0.0064 z"
       id="path1161"
       transform="matrix(0.26458333,0,0,0.26458333,4.01512,47.184054)" />
    <path
       style="fill:#ffff00;fill-opacity:0.992157;stroke-width:0.0197295"
       d=""
       id="path1163"
       transform="matrix(0.26458333,0,0,0.26458333,4.01512,47.184054)" />
    <path
       style="fill:#ffff00;fill-opacity:0.992157;stroke-width:0.0197295"
       d=""
       id="path1165"
       transform="matrix(0.26458333,0,0,0.26458333,4.01512,47.184054)" />
    <path
       style="fill:#ffff00;fill-opacity:0.992157;stroke-width:0.0197295"
       d=""
       id="path1167"
       transform="matrix(0.26458333,0,0,0.26458333,4.01512,47.184054)" />
    <path
       style="fill:#ffff00;fill-opacity:0.992157;stroke-width:0.0197295"
       d=""
       id="path1169"
       transform="matrix(0.26458333,0,0,0.26458333,4.01512,47.184054)" />
    <path
       style="fill:#ffff00;fill-opacity:0.992157;stroke-width:0.0197295"
       d=""
       id="path1171"
       transform="matrix(0.26458333,0,0,0.26458333,4.01512,47.184054)" />
    <path
       style="fill:#ffff00;fill-opacity:0.992157;stroke-width:0.0197295"
       d=""
       id="path1173"
       transform="matrix(0.26458333,0,0,0.26458333,4.01512,47.184054)" />
    <path
       style="fill:#ffff00;fill-opacity:0.992157;stroke-width:0.0197295"
       d=""
       id="path1175"
       transform="matrix(0.26458333,0,0,0.26458333,4.01512,47.184054)" />
    <path
       style="fill:#ffff00;fill-opacity:0.992157;stroke-width:0.0197295"
       d="m 135.40374,24.011648 v -0.03853 l 0.35316,-0.183434 c 0.97005,-0.503853 2.08467,-1.089031 2.94562,-1.546452 0.48404,-0.257173 0.65718,-0.347229 0.66756,-0.347229 0.003,0 0.003,0.0055 2.3e-4,0.01225 -0.003,0.0067 7.3e-4,0.02053 0.007,0.03066 0.012,0.01832 0.0115,0.0187 -0.10071,0.08156 -0.39398,0.220616 -1.84534,0.981962 -3.38787,1.777191 -0.21269,0.109647 -0.4089,0.211317 -0.43603,0.225933 l -0.0493,0.02658 z"
       id="path1177"
       transform="matrix(0.26458333,0,0,0.26458333,4.01512,47.184054)" />
    <path
       style="fill:#ffff00;fill-opacity:0.992157;stroke-width:0.0197295"
       d="m 135.40374,24.011873 v -0.03889 l 0.33738,-0.175511 c 1.13725,-0.591625 1.94329,-1.01461 2.88643,-1.5147 0.64771,-0.343444 0.73053,-0.386761 0.73948,-0.386761 0.003,0 0.006,0.0073 0.006,0.0163 0,0.009 0.004,0.02294 0.008,0.03106 0.007,0.01298 -9.1e-4,0.01973 -0.0651,0.05596 -0.34207,0.193071 -1.58747,0.847914 -3.06006,1.609007 -0.3798,0.196292 -0.72694,0.376139 -0.77143,0.39966 l -0.0809,0.04277 z"
       id="path1179"
       transform="matrix(0.26458333,0,0,0.26458333,4.01512,47.184054)" />
    <path
       style="fill:#ffff00;fill-opacity:0.992157;stroke-width:0.0197295"
       d=""
       id="path1181"
       transform="matrix(0.26458333,0,0,0.26458333,4.01512,47.184054)" />
    <path
       style="fill:#ffff00;fill-opacity:0.992157;stroke-width:0.0197295"
       d="m 135.02982,23.761548 c 0.003,-0.0027 0.519,-0.268378 1.14744,-0.590505 0.82685,-0.423825 1.14512,-0.583356 1.15165,-0.577255 0.007,0.0061 -0.17309,0.100044 -0.65091,0.340407 -0.36297,0.182586 -0.8805,0.444519 -1.15007,0.582074 -0.26957,0.137554 -0.49301,0.250098 -0.49653,0.250098 -0.004,0 -0.004,-0.0022 -0.002,-0.0048 z"
       id="path1183"
       transform="matrix(0.26458333,0,0,0.26458333,4.01512,47.184054)" />
    <path
       style="fill:#ffff00;fill-opacity:0.992157;stroke-width:0.0197295"
       d=""
       id="path1185"
       transform="matrix(0.26458333,0,0,0.26458333,4.01512,47.184054)" />
    <path
       style="fill:#ffff00;fill-opacity:0.992157;stroke-width:0.0197295"
       d="m 137.06372,22.839714 c 0,-0.0018 0.0826,-0.04592 0.18349,-0.09799 0.10092,-0.05207 0.24588,-0.128019 0.32215,-0.168771 0.10101,-0.05398 0.14091,-0.07168 0.14695,-0.06521 0.006,0.0065 -0.0809,0.05348 -0.31822,0.172082 -0.17959,0.08976 -0.32829,0.163203 -0.33044,0.163203 -0.002,0 -0.004,-0.0015 -0.004,-0.0033 z"
       id="path1187"
       transform="matrix(0.26458333,0,0,0.26458333,4.01512,47.184054)" />
    <path
       style="fill:#ffff00;fill-opacity:0.992157;stroke-width:0.0197295"
       d=""
       id="path1189"
       transform="matrix(0.26458333,0,0,0.26458333,4.01512,47.184054)" />
    <path
       style="fill:#ffff00;fill-opacity:0.992157;stroke-width:0.0197295"
       d=""
       id="path1191"
       transform="matrix(0.26458333,0,0,0.26458333,4.01512,47.184054)" />
    <path
       style="fill:#ffff00;fill-opacity:0.992157;stroke-width:0.0197295"
       d=""
       id="path1193"
       transform="matrix(0.26458333,0,0,0.26458333,4.01512,47.184054)" />
    <path
       style="fill:#ffff00;fill-opacity:0.992157;stroke-width:0.00976562"
       d="m 135.51118,23.954673 0.001,-0.03963 0.35547,-0.185171 c 1.11013,-0.578293 2.02165,-1.056888 2.70117,-1.418256 0.44023,-0.234113 0.58063,-0.308434 0.69922,-0.370125 0.0612,-0.03185 0.11836,-0.0636 0.12695,-0.07056 0.026,-0.02102 0.0978,-0.06291 0.16514,-0.09625 0.035,-0.01732 0.0644,-0.03066 0.0654,-0.02963 0.006,0.0063 -0.21718,0.144749 -0.23366,0.144749 -0.007,0 -0.0105,0.0032 -0.0139,0.01248 -0.007,0.01965 -0.005,0.02945 0.007,0.04117 l 0.0117,0.01089 -0.0361,0.02138 c -0.19592,0.116154 -1.17495,0.63404 -2.44427,1.292971 -0.55164,0.286366 -1.40167,0.725595 -1.40423,0.725595 -0.001,0 -0.002,-0.01783 -0.001,-0.03963 z"
       id="path1195"
       transform="matrix(0.26458333,0,0,0.26458333,4.01512,47.184054)" />
    <path
       style="fill:#ffff00;fill-opacity:0.992157;stroke-width:0.00976562"
       d="m 135.51042,23.90499 c 6e-5,-0.0043 0.0211,-0.01724 0.0635,-0.03917 0.97441,-0.503884 2.92922,-1.532831 3.70539,-1.950396 0.0996,-0.05357 0.18184,-0.09663 0.18279,-0.09567 9.5e-4,9.52e-4 -0.007,0.0066 -0.017,0.01258 -0.0103,0.006 -0.0293,0.01882 -0.0422,0.02855 -0.0129,0.0097 -0.0375,0.02508 -0.0547,0.03411 -0.0172,0.009 -0.0893,0.04674 -0.16016,0.08381 -0.0709,0.03707 -0.2916,0.153975 -0.49045,0.259783 -0.62298,0.331482 -1.29143,0.683446 -2.13455,1.123918 -0.90257,0.471531 -1.05273,0.548918 -1.05265,0.542486 z"
       id="path1197"
       transform="matrix(0.26458333,0,0,0.26458333,4.01512,47.184054)" />
    <path
       style="fill:#ffff00;fill-opacity:0.992157;stroke-width:0.00976562"
       d="m 135.51107,23.880525 c 0.001,-0.01194 0.006,-0.01483 0.22583,-0.129283 1.57608,-0.821477 3.00992,-1.575066 3.67578,-1.931896 0.13428,-0.07196 0.28545,-0.152794 0.33594,-0.179634 0.17382,-0.09241 0.25602,-0.136871 0.31793,-0.171986 0.048,-0.02721 0.0632,-0.03418 0.067,-0.03068 0.003,0.0025 0.005,0.0048 0.004,0.0051 -3.2e-4,2.94e-4 -0.0559,0.03124 -0.12363,0.06878 -0.70355,0.390215 -2.07834,1.119201 -4.00195,2.122061 -0.17617,0.09185 -0.36028,0.187873 -0.40913,0.213395 -0.0489,0.02552 -0.0898,0.0464 -0.0911,0.0464 -0.001,0 -0.002,-0.0055 -0.001,-0.01221 z"
       id="path1199"
       transform="matrix(0.26458333,0,0,0.26458333,4.01512,47.184054)" />
    <path
       style="fill:#ffff00;fill-opacity:0.992157;stroke-width:0.00976562"
       d="m 139.38193,21.93855 c -0.002,-0.0024 -0.004,-0.0058 -0.004,-0.0074 0,-0.0043 0.0584,-0.04771 0.0609,-0.04523 0.001,0.0011 -0.002,0.0053 -0.007,0.0093 -0.005,0.004 -0.0107,0.0098 -0.0125,0.01277 -0.005,0.0085 0.0336,0.003 0.0641,-0.0092 0.0391,-0.01555 0.0374,-0.0094 -0.002,0.0072 -0.0676,0.0285 -0.0942,0.03724 -0.0989,0.0325 z"
       id="path1201"
       transform="matrix(0.26458333,0,0,0.26458333,4.01512,47.184054)" />
    <path
       style="fill:#ffff00;fill-opacity:0.992157;stroke-width:0.00976562"
       d="m 139.5203,21.830538 c 0.0131,-0.01276 0.24044,-0.144124 0.40605,-0.234662 0.0602,-0.03289 0.15332,-0.08436 0.20703,-0.11439 0.0537,-0.03003 0.10844,-0.06057 0.12161,-0.06787 0.0187,-0.01038 0.0244,-0.01208 0.0261,-0.0078 0.001,0.0039 -0.0229,0.01938 -0.0845,0.05357 -0.22973,0.127491 -0.56474,0.32208 -0.58754,0.341265 -0.008,0.0064 -0.0167,0.01003 -0.025,0.01004 -0.007,2e-6 -0.0242,0.0053 -0.0379,0.01172 -0.0258,0.01222 -0.0321,0.01418 -0.0258,0.0081 z"
       id="path1203"
       transform="matrix(0.26458333,0,0,0.26458333,4.01512,47.184054)" />
    <path
       style="fill:#ffff00;fill-opacity:0.992157;stroke-width:0.00976562"
       d=""
       id="path1205"
       transform="matrix(0.26458333,0,0,0.26458333,4.01512,47.184054)" />
    <path
       style="fill:#ffff00;fill-opacity:0.992157;stroke-width:0.00976562"
       d="m 139.72909,21.795082 c 0.0161,-0.0084 0.0319,-0.01524 0.0351,-0.01524 0.003,0 -0.007,0.0069 -0.0234,0.01524 -0.0161,0.0084 -0.0319,0.01524 -0.0352,0.01524 -0.003,0 0.007,-0.0069 0.0234,-0.01524 z"
       id="path1207"
       transform="matrix(0.26458333,0,0,0.26458333,4.01512,47.184054)" />
    <path
       style="fill:#ffff00;fill-opacity:0.992157;stroke-width:0.00976562"
       d="m 139.6123,21.840825 c 0.007,-0.0049 0.0133,-0.01151 0.0133,-0.01465 0,-0.0088 0.008,-0.01329 0.0868,-0.04919 0.0403,-0.01836 0.20008,-0.09627 0.35502,-0.173127 0.15494,-0.07686 0.28854,-0.141017 0.29688,-0.142575 0.008,-0.0016 0.0143,-0.0021 0.0132,-0.0011 -0.01,0.0089 -0.48658,0.25198 -0.64363,0.328318 -0.12191,0.05926 -0.14949,0.07113 -0.12159,0.05233 z"
       id="path1209"
       transform="matrix(0.26458333,0,0,0.26458333,4.01512,47.184054)" />
  </g>
</svg>
