<?xml version="1.0" encoding="UTF-8" standalone="no"?>
<svg
   xmlns:osb="http://www.openswatchbook.org/uri/2009/osb"
   xmlns:dc="http://purl.org/dc/elements/1.1/"
   xmlns:cc="http://creativecommons.org/ns#"
   xmlns:rdf="http://www.w3.org/1999/02/22-rdf-syntax-ns#"
   xmlns:svg="http://www.w3.org/2000/svg"
   xmlns="http://www.w3.org/2000/svg"
   xmlns:sodipodi="http://sodipodi.sourceforge.net/DTD/sodipodi-0.dtd"
   xmlns:inkscape="http://www.inkscape.org/namespaces/inkscape"
   sodipodi:docname="wire22.svg"
   inkscape:version="1.0.2-2 (e86c870879, 2021-01-15)"
   id="svg116"
   version="1.1"
   viewBox="0 0 8.4084501 14.601484"
   height="14.601484mm"
   width="8.4084501mm">
  <defs
     id="defs110">
    <linearGradient
       id="linearGradient2831"
       osb:paint="solid">
      <stop
         style="stop-color:#ffff00;stop-opacity:1;"
         offset="0"
         id="stop2829" />
    </linearGradient>
  </defs>
  <sodipodi:namedview
     inkscape:window-maximized="1"
     inkscape:window-y="-9"
     inkscape:window-x="-9"
     inkscape:window-height="1001"
     inkscape:window-width="1920"
     showgrid="false"
     inkscape:document-rotation="0"
     inkscape:current-layer="layer1"
     inkscape:document-units="mm"
     inkscape:cy="41.235598"
     inkscape:cx="2.4375038"
     inkscape:zoom="7.919596"
     inkscape:pageshadow="2"
     inkscape:pageopacity="0.0"
     borderopacity="1.0"
     bordercolor="#666666"
     pagecolor="#ffffff"
     id="base" />
  <metadata
     id="metadata113">
    <rdf:RDF>
      <cc:Work
         rdf:about="">
        <dc:format>image/svg+xml</dc:format>
        <dc:type
           rdf:resource="http://purl.org/dc/dcmitype/StillImage" />
        <dc:title />
      </cc:Work>
    </rdf:RDF>
  </metadata>
  <g
     transform="translate(-76.68268,-123.47902)"
     id="layer1"
     inkscape:groupmode="layer"
     inkscape:label="Layer 1">
    <path
       style="fill:none;stroke:#fff700;stroke-width:0.264583px;stroke-linecap:butt;stroke-linejoin:miter;stroke-opacity:1"
       d="m 84.647489,123.55883 c -2.444628,3.23141 -4.904995,6.86434 -7.843007,13.79613"
       id="path92"
       sodipodi:nodetypes="cc" />
    <path
       style="fill:none;stroke:#fffd00;stroke-width:0.264583px;stroke-linecap:butt;stroke-linejoin:miter;stroke-opacity:1"
       d="m 84.984325,124.14802 c -5.825456,7.97037 -7.468104,13.9683 -7.583773,13.79779"
       id="path98"
       sodipodi:nodetypes="cc" />
    <path
       style="fill:#ffff00;fill-opacity:0.81999999;stroke-width:0.315673"
       d="m 1.8716049,53.04124 c -0.364602,-0.317074 -0.6629126,-0.648916 -0.6629126,-0.737425 0,-0.200028 2.3056843,-5.489823 4.0477513,-9.286517 1.6571678,-3.611663 5.8872384,-12.071015 7.6399914,-15.278557 4.649674,-8.508914 9.31504,-15.781665 15.618289,-24.3470571 l 1.516366,-2.0605663 0.299147,0.5266589 c 0.164531,0.2896624 0.299148,0.5689544 0.299148,0.6206488 0,0.051694 -0.586525,0.912416 -1.303388,1.9127146 C 18.813416,19.060201 10.17856,34.671606 4.0876612,50.02084 3.3028802,51.99851 2.632376,53.616859 2.597652,53.617172 2.562928,53.617425 2.2362068,53.358315 1.8716049,53.04124 Z"
       id="path2073"
       transform="matrix(0.26458333,0,0,0.26458333,76.68268,123.47902)" />
    <path
       style="fill:none;stroke:#000000;stroke-width:0.264583px;stroke-linecap:butt;stroke-linejoin:miter;stroke-opacity:1"
       d="m 76.804482,137.35496 v 0"
       id="path3828"
       sodipodi:nodetypes="cc" />
    <path
       style="fill:#ffff00;fill-opacity:0.82;stroke:#000000;stroke-width:0.0631345;stroke-opacity:1"
       d="m 2.2226262,53.154672 c -0.4805222,-0.354924 -0.820749,-0.721318 -0.820749,-0.883873 0,-0.219446 0.4511233,-1.314936 1.927209,-4.67996 1.9684641,-4.487495 2.5108186,-5.631428 5.4328364,-11.458918 3.2916064,-6.564573 4.5263254,-8.91447 6.4521724,-12.279667 3.747758,-6.548777 7.487994,-12.261506 12.961045,-19.7963281 1.007438,-1.3869514 1.845985,-2.5217298 1.863441,-2.5217298 0.04634,0 0.405074,0.7740734 0.405132,0.8742027 6.3e-5,0.1207641 -0.475325,0.8359389 -2.405617,3.6189595 C 21.237723,15.831868 16.411213,23.820534 11.642596,33.164598 8.8956428,38.547229 6.7138512,43.373085 3.5933531,50.968537 2.5908901,53.408583 2.60852,53.367944 2.5532352,53.366084 c -0.025577,-8.61e-4 -0.174351,-0.096 -0.330609,-0.211412 z"
       id="path2823"
       transform="matrix(0.26458333,0,0,0.26458333,76.68268,123.47902)" />
    <path
       style="fill:#ffff00;fill-opacity:1;stroke:#f9fc08;stroke-width:0.064252;stroke-miterlimit:4;stroke-dasharray:none;stroke-opacity:0.990741"
       d="m 2.2226262,53.154672 c -0.4805222,-0.354924 -0.820749,-0.721318 -0.820749,-0.883873 0,-0.219446 0.451123,-1.314936 1.927209,-4.67996 1.0524484,-2.39926 1.6972354,-3.842744 2.5160125,-5.557269 0.7108526,-1.488531 1.5528503,-3.181358 2.9066246,-5.881308 0.0034,-0.0068 0.0068,-0.01355 0.010199,-0.02034 0.9024025,-1.799695 1.6502107,-3.282616 2.3000467,-4.556528 1.720508,-3.372815 2.754255,-5.28052 4.152126,-7.723139 3.747758,-6.548777 7.487994,-12.261506 12.961045,-19.7963281 1.007438,-1.3869514 1.845985,-2.5217298 1.863441,-2.5217298 0.04634,0 0.405074,0.7740734 0.405132,0.8742027 6.3e-5,0.1207641 -0.475324,0.8359394 -2.405617,3.6189595 -5.843123,8.4243837 -10.22897,15.5081567 -14.37296,23.2630307 -0.67889,1.270443 -1.351289,2.558898 -2.02254,3.874209 -0.562671,1.113812 -1.099751,2.196262 -1.612141,3.248223 -0.6475225,1.329392 -1.2556152,2.610091 -1.8260973,3.843856 -1.41887,3.093172 -2.8686022,6.470763 -4.6110049,10.71186 -1.0024629,2.440046 -0.9848331,2.399407 -1.0401179,2.397547 -0.025577,-8.61e-4 -0.174351,-0.096 -0.330609,-0.211412 z"
       id="path2825"
       transform="matrix(0.26458333,0,0,0.26458333,76.68268,123.47902)"
       sodipodi:nodetypes="sssssssssscsscscssss" />
    <path
       style="fill:#ffff00;fill-opacity:0.82;stroke:#000000;stroke-width:0.0631345;stroke-opacity:1"
       d=""
       id="path2827"
       transform="matrix(0.26458333,0,0,0.26458333,76.68268,123.47902)" />
  </g>
</svg>
