<?xml version="1.0" encoding="UTF-8" standalone="no"?>
<svg
   xmlns:dc="http://purl.org/dc/elements/1.1/"
   xmlns:cc="http://creativecommons.org/ns#"
   xmlns:rdf="http://www.w3.org/1999/02/22-rdf-syntax-ns#"
   xmlns:svg="http://www.w3.org/2000/svg"
   xmlns="http://www.w3.org/2000/svg"
   xmlns:sodipodi="http://sodipodi.sourceforge.net/DTD/sodipodi-0.dtd"
   xmlns:inkscape="http://www.inkscape.org/namespaces/inkscape"
   sodipodi:docname="wire2.svg"
   inkscape:version="1.0.2-2 (e86c870879, 2021-01-15)"
   id="svg116"
   version="1.1"
   viewBox="0 0 8.4084501 14.601484"
   height="14.601484mm"
   width="8.4084501mm">
  <defs
     id="defs110" />
  <sodipodi:namedview
     inkscape:window-maximized="1"
     inkscape:window-y="-9"
     inkscape:window-x="-9"
     inkscape:window-height="1001"
     inkscape:window-width="1920"
     showgrid="false"
     inkscape:document-rotation="0"
     inkscape:current-layer="layer1"
     inkscape:document-units="mm"
     inkscape:cy="49.835828"
     inkscape:cx="63.522478"
     inkscape:zoom="7.9195959"
     inkscape:pageshadow="2"
     inkscape:pageopacity="0.0"
     borderopacity="1.0"
     bordercolor="#666666"
     pagecolor="#ffffff"
     id="base" />
  <metadata
     id="metadata113">
    <rdf:RDF>
      <cc:Work
         rdf:about="">
        <dc:format>image/svg+xml</dc:format>
        <dc:type
           rdf:resource="http://purl.org/dc/dcmitype/StillImage" />
        <dc:title />
      </cc:Work>
    </rdf:RDF>
  </metadata>
  <g
     transform="translate(-76.68268,-123.47902)"
     id="layer1"
     inkscape:groupmode="layer"
     inkscape:label="Layer 1">
    <path
       style="fill:none;stroke:#75ff81;stroke-width:0.265;stroke-linecap:butt;stroke-linejoin:miter;stroke-opacity:1;stroke-miterlimit:4;stroke-dasharray:none"
       d="m 84.647489,123.55883 c -2.444628,3.23141 -4.904995,6.86434 -7.843007,13.79613"
       id="path92"
       sodipodi:nodetypes="cc" />
    <path
       style="fill:none;stroke:#75ff81;stroke-width:0.264583px;stroke-linecap:butt;stroke-linejoin:miter;stroke-opacity:1"
       d="m 84.984325,124.14802 c -5.825456,7.97037 -7.468104,13.9683 -7.583773,13.79779"
       id="path98"
       sodipodi:nodetypes="cc" />
    <path
       style="fill:#75ff81;fill-opacity:1;stroke-width:0.315673"
       d="m 1.8716049,53.04124 c -0.364602,-0.317074 -0.6629126,-0.648916 -0.6629126,-0.737425 0,-0.200028 2.3056843,-5.489823 4.0477513,-9.286517 1.6571678,-3.611663 5.8872384,-12.071015 7.6399914,-15.278557 4.649674,-8.508914 9.31504,-15.781665 15.618289,-24.3470571 l 1.516366,-2.0605663 0.299147,0.5266589 c 0.164531,0.2896624 0.299148,0.5689544 0.299148,0.6206488 0,0.051694 -0.586525,0.912416 -1.303388,1.9127146 C 18.813416,19.060201 10.17856,34.671606 4.0876612,50.02084 3.3028802,51.99851 2.632376,53.616859 2.597652,53.617172 2.562928,53.617425 2.2362068,53.358315 1.8716049,53.04124 Z"
       id="path2073"
       transform="matrix(0.26458333,0,0,0.26458333,76.68268,123.47902)" />
  </g>
</svg>
